<?xml version="1.0" encoding="UTF-8" standalone="no"?><svg xmlns="http://www.w3.org/2000/svg" xmlns:xlink="http://www.w3.org/1999/xlink" contentStyleType="text/css" height="1314px" preserveAspectRatio="none" style="width:641px;height:1314px;background:#FFFFFF;" version="1.1" viewBox="0 0 641 1314" width="641px" zoomAndPan="magnify"><defs/><g><!--MD5=[6ea93574f71f75ac542a4032e198fe98]
cluster Système--><g id="cluster_Système"><rect height="1301" rx="2.5" ry="2.5" style="stroke:#181818;stroke-width:1.0;fill:none;" width="482" x="153" y="7"/><text fill="#000000" font-family="sans-serif" font-size="14" font-weight="bold" lengthAdjust="spacing" textLength="69" x="359.5" y="21.9951">Système</text></g><g id="elem_Rendre inactif un client"><ellipse cx="393.7923" cy="928.7585" fill="#F1F1F1" rx="101.7923" ry="22.7585" style="stroke:#181818;stroke-width:0.5;"/><text fill="#000000" font-family="sans-serif" font-size="14" lengthAdjust="spacing" textLength="168" x="309.7923" y="931.6051">Rendre inactif un client</text></g><g id="elem_Gérer les employés"><ellipse cx="393.7915" cy="1007.1583" fill="#F1F1F1" rx="88.7915" ry="20.1583" style="stroke:#181818;stroke-width:0.5;"/><text fill="#000000" font-family="sans-serif" font-size="14" lengthAdjust="spacing" textLength="139" x="324.2915" y="1010.005">Gérer les employés</text></g><g id="elem_Débiter un compte"><ellipse cx="393.8518" cy="544.0704" fill="#F1F1F1" rx="88.3518" ry="20.0704" style="stroke:#181818;stroke-width:0.5;"/><text fill="#000000" font-family="sans-serif" font-size="14" lengthAdjust="spacing" textLength="138" x="324.8518" y="546.917">Débiter un compte</text></g><g id="elem_Consulter un compte"><ellipse cx="394.1163" cy="620.2233" fill="#F1F1F1" rx="94.1163" ry="21.2233" style="stroke:#181818;stroke-width:0.5;"/><text fill="#000000" font-family="sans-serif" font-size="14" lengthAdjust="spacing" textLength="151" x="318.6163" y="623.0699">Consulter un compte</text></g><g id="elem_Créer un nouveau client"><ellipse cx="394.2481" cy="698.8496" fill="#F1F1F1" rx="102.2481" ry="22.8496" style="stroke:#181818;stroke-width:0.5;"/><text fill="#000000" font-family="sans-serif" font-size="14" lengthAdjust="spacing" textLength="169" x="309.7481" y="701.6963">Créer un nouveau client</text></g><g id="elem_Modifier infos client"><ellipse cx="394.0567" cy="778.0113" fill="#F1F1F1" rx="90.5567" ry="20.5113" style="stroke:#181818;stroke-width:0.5;"/><text fill="#000000" font-family="sans-serif" font-size="14" lengthAdjust="spacing" textLength="143" x="322.5567" y="780.858">Modifier infos client</text></g><g id="elem_Créditer compte"><ellipse cx="394.0271" cy="852.1054" fill="#F1F1F1" rx="81.0271" ry="18.6054" style="stroke:#181818;stroke-width:0.5;"/><text fill="#000000" font-family="sans-serif" font-size="14" lengthAdjust="spacing" textLength="121" x="332.2415" y="855.3718">Créditer compte</text></g><g id="elem_Virment de compte à compte"><ellipse cx="394.0909" cy="69.1182" fill="#F1F1F1" rx="123.5909" ry="27.1182" style="stroke:#181818;stroke-width:0.5;"/><text fill="#000000" font-family="sans-serif" font-size="14" lengthAdjust="spacing" textLength="215" x="286.5909" y="71.9649">Virment de compte à compte</text></g><g id="elem_Cloturer un compte"><ellipse cx="394.1728" cy="151.8346" fill="#F1F1F1" rx="89.6728" ry="20.3346" style="stroke:#181818;stroke-width:0.5;"/><text fill="#000000" font-family="sans-serif" font-size="14" lengthAdjust="spacing" textLength="141" x="323.6728" y="154.6812">Cloturer un compte</text></g><g id="elem_Créer un compte"><ellipse cx="393.9455" cy="226.1891" fill="#F1F1F1" rx="81.4455" ry="18.6891" style="stroke:#181818;stroke-width:0.5;"/><text fill="#000000" font-family="sans-serif" font-size="14" lengthAdjust="spacing" textLength="122" x="331.8109" y="229.409">Créer un compte</text></g><g id="elem_Générer un relevé mensuel d’un compte en PDF"><ellipse cx="394.1285" cy="318.8257" fill="#F1F1F1" rx="184.6285" ry="39.3257" style="stroke:#181818;stroke-width:0.5;"/><text fill="#000000" font-family="sans-serif" font-size="14" lengthAdjust="spacing" textLength="342" x="223.1285" y="321.6724">Générer un relevé mensuel d’un compte en PDF</text></g><g id="elem_Gérer, ou faire le « CRUD » des prélèvements automatiques"><ellipse cx="393.7745" cy="440.8549" fill="#F1F1F1" rx="224.7745" ry="47.3549" style="stroke:#181818;stroke-width:0.5;"/><text fill="#000000" font-family="sans-serif" font-size="14" lengthAdjust="spacing" textLength="424" x="181.7745" y="443.7016">Gérer, ou faire le « CRUD » des prélèvements automatiques</text></g><g id="elem_Effectuer un Débit exceptionnel"><ellipse cx="394.0975" cy="1185.8195" fill="#F1F1F1" rx="132.0975" ry="28.8195" style="stroke:#181818;stroke-width:0.5;"/><text fill="#000000" font-family="sans-serif" font-size="14" lengthAdjust="spacing" textLength="233" x="277.5975" y="1188.6662">Effectuer un Débit exceptionnel</text></g><g id="elem_Simuler un emprunt"><ellipse cx="394.1144" cy="1270.9229" fill="#F1F1F1" rx="90.1144" ry="20.4229" style="stroke:#181818;stroke-width:0.5;"/><text fill="#000000" font-family="sans-serif" font-size="14" lengthAdjust="spacing" textLength="142" x="323.1144" y="1273.7696">Simuler un emprunt</text></g><g id="elem_Simuler une assurance d’emprunt"><ellipse cx="393.9721" cy="1091.7944" fill="#F1F1F1" rx="134.4721" ry="29.2944" style="stroke:#181818;stroke-width:0.5;"/><text fill="#000000" font-family="sans-serif" font-size="14" lengthAdjust="spacing" textLength="238" x="274.9721" y="1094.6411">Simuler une assurance d’emprunt</text></g><!--MD5=[634022ffb0ee2fe3da972e9a474208da]
entity Chef d'agence--><g id="elem_Chef d'agence"><ellipse cx="57.5" cy="1028" fill="#F1F1F1" rx="16" ry="16" style="stroke:#181818;stroke-width:1.5;"/><path d="M57.5,1048 C61.5,1048 64.5,1048 68.5,1044 C76.5,1044 84.5,1052 84.5,1060 L84.5,1064 C84.5,1068 80.5,1072 76.5,1072 L38.5,1072 C34.5,1072 30.5,1068 30.5,1064 L30.5,1060 C30.5,1052 38.5,1044 46.5,1044 C50.5,1048 53.5,1048 57.5,1048 " fill="#F1F1F1" style="stroke:#181818;stroke-width:1.5;"/><text fill="#000000" font-family="sans-serif" font-size="14" lengthAdjust="spacing" textLength="103" x="6" y="1086.4951">Chef d'agence</text></g><!--MD5=[34413ead84916979ab18eea1b2c854c1]
entity Guichetier--><g id="elem_Guichetier"><ellipse cx="57.5" cy="522" fill="#F1F1F1" rx="16" ry="16" style="stroke:#181818;stroke-width:1.5;"/><path d="M57.5,542 C61.5,542 64.5,542 68.5,538 C76.5,538 84.5,546 84.5,554 L84.5,558 C84.5,562 80.5,566 76.5,566 L38.5,566 C34.5,566 30.5,562 30.5,558 L30.5,554 C30.5,546 38.5,538 46.5,538 C50.5,542 53.5,542 57.5,542 " fill="#F1F1F1" style="stroke:#181818;stroke-width:1.5;"/><text fill="#000000" font-family="sans-serif" font-size="14" lengthAdjust="spacing" textLength="75" x="20" y="580.4951">Guichetier</text></g><!--MD5=[569a56ac7f04f53b13f50c0e874c4f09]
reverse link Guichetier to Chef d'agence--><g id="link_Guichetier_Chef d'agence"><path d="M57.5,603.64 C57.5,739.249 57.5,874.859 57.5,1010.469 " fill="none" id="Guichetier-backto-Chef d'agence" style="stroke:#181818;stroke-width:1.0;"/><polygon fill="none" points="50.5001,603.632,57.5,583.632,64.5001,603.632,50.5001,603.632" style="stroke:#181818;stroke-width:1.0;"/></g><!--MD5=[fa2e395e32982047f577df944f1ae0e3]
link Chef d'agence to Rendre inactif un client--><g id="link_Chef d'agence_Rendre inactif un client"><path d="M91.3955,1010.322 C106.199,995.031 124.869,978.88 145,969 C188.824,947.492 241.739,937.145 287.415,932.311 " fill="none" id="Chef d'agence-to-Rendre inactif un client" style="stroke:#181818;stroke-width:1.0;"/><polygon fill="#181818" points="292.663,931.777,283.3045,928.7081,287.6887,932.2829,284.1139,936.667,292.663,931.777" style="stroke:#181818;stroke-width:1.0;"/></g><!--MD5=[c117574e404b72ccce671cda296f7818]
link Chef d'agence to Gérer les employés--><g id="link_Chef d'agence_Gérer les employés"><path d="M109.303,1043.469 C162.811,1036.591 247.887,1025.654 310.933,1017.55 " fill="none" id="Chef d'agence-to-Gérer les employés" style="stroke:#181818;stroke-width:1.0;"/><polygon fill="#181818" points="316.197,1016.873,306.7598,1014.0553,311.238,1017.5116,307.7816,1021.9898,316.197,1016.873" style="stroke:#181818;stroke-width:1.0;"/></g><!--MD5=[40710a5d42454481e3338f5e9d807a10]
link Chef d'agence to Effectuer un Débit exceptionnel--><g id="link_Chef d'agence_Effectuer un Débit exceptionnel"><path d="M87.6749,1089.661 C102.8219,1107.442 122.798,1127.059 145,1139 C180.735,1158.22 223.063,1169.685 262.541,1176.491 " fill="none" id="Chef d'agence-to-Effectuer un Débit exceptionnel" style="stroke:#181818;stroke-width:1.0;"/><polygon fill="#181818" points="267.84,1177.38,259.6257,1171.9463,262.9089,1176.5529,258.3023,1179.8361,267.84,1177.38" style="stroke:#181818;stroke-width:1.0;"/></g><!--MD5=[75c2df6dd4eaa4a435a7add9e37852fd]
link Chef d'agence to Simuler un emprunt--><g id="link_Chef d'agence_Simuler un emprunt"><path d="M65.8979,1089.794 C76.0177,1132.339 98.5143,1198.343 145,1233 C189.734,1266.3512 251.796,1275.8399 302.644,1276.9965 " fill="none" id="Chef d'agence-to-Simuler un emprunt" style="stroke:#181818;stroke-width:1.0;"/><polygon fill="#181818" points="307.842,1277.0868,298.9131,1272.9306,302.8428,1276.9997,298.7737,1280.9293,307.842,1277.0868" style="stroke:#181818;stroke-width:1.0;"/></g><!--MD5=[72b56885d7fe2f5ae3e52913859dc0ef]
link Chef d'agence to Simuler une assurance d’emprunt--><g id="link_Chef d'agence_Simuler une assurance d’emprunt"><path d="M109.303,1056.379 C152.325,1061.781 215.755,1069.745 271.733,1076.774 " fill="none" id="Chef d'agence-to-Simuler une assurance d’emprunt" style="stroke:#181818;stroke-width:1.0;"/><polygon fill="#181818" points="276.78,1077.407,268.3483,1072.3171,271.8189,1076.7842,267.3518,1080.2548,276.78,1077.407" style="stroke:#181818;stroke-width:1.0;"/></g><!--MD5=[50aa03f8acb92ee599ba10a18c70b28e]
link Guichetier to Débiter un compte--><g id="link_Guichetier_Débiter un compte"><path d="M95.2542,544 C144.132,544 232.229,544 299.96,544 " fill="none" id="Guichetier-to-Débiter un compte" style="stroke:#181818;stroke-width:1.0;"/><polygon fill="#181818" points="305.211,544,296.211,540,300.211,544,296.211,548,305.211,544" style="stroke:#181818;stroke-width:1.0;"/></g><!--MD5=[91d9da155be1af38883eff6d78dcd216]
link Guichetier to Consulter un compte--><g id="link_Guichetier_Consulter un compte"><path d="M95.2288,562.102 C110.337,568.912 128.204,576.169 145,581 C196.022,595.676 254.639,605.216 302.071,611.184 " fill="none" id="Guichetier-to-Consulter un compte" style="stroke:#181818;stroke-width:1.0;"/><polygon fill="#181818" points="307.21,611.823,298.7711,606.7451,302.2481,611.2072,297.7859,614.6842,307.21,611.823" style="stroke:#181818;stroke-width:1.0;"/></g><!--MD5=[2e0b443a5282df7a28c4fa4c5c5161f4]
link Guichetier to Créer un nouveau client--><g id="link_Guichetier_Créer un nouveau client"><path d="M78.3032,583.602 C93.1316,609.007 115.855,640.42 145,658 C187.184,683.445 240.388,694.422 286.69,698.743 " fill="none" id="Guichetier-to-Créer un nouveau client" style="stroke:#181818;stroke-width:1.0;"/><polygon fill="#181818" points="291.723,699.189,283.1126,694.4077,286.7426,698.7462,282.4041,702.3763,291.723,699.189" style="stroke:#181818;stroke-width:1.0;"/></g><!--MD5=[f9f619f9753b0977266d7485b11c88da]
link Guichetier to Modifier infos client--><g id="link_Guichetier_Modifier infos client"><path d="M64.6398,583.855 C73.8146,628.976 95.643,701.116 145,739 C189.29,772.994 251.353,782.733 302.312,783.979 " fill="none" id="Guichetier-to-Modifier infos client" style="stroke:#181818;stroke-width:1.0;"/><polygon fill="#181818" points="307.521,784.078,298.5992,779.9064,302.5219,783.9823,298.4461,787.905,307.521,784.078" style="stroke:#181818;stroke-width:1.0;"/></g><!--MD5=[5c4d500bb4daf715bd068c07224764fb]
link Guichetier to Créditer compte--><g id="link_Guichetier_Créditer compte"><path d="M58.7428,583.922 C61.4406,644.173 76.0384,757.498 145,816 C192.005,855.876 262.942,862.641 316.924,860.731 " fill="none" id="Guichetier-to-Créditer compte" style="stroke:#181818;stroke-width:1.0;"/><polygon fill="#181818" points="322.093,860.519,312.9371,856.8901,317.0972,860.7233,313.2639,864.8834,322.093,860.519" style="stroke:#181818;stroke-width:1.0;"/></g><!--MD5=[a5e774a1d0ff2163c754a2c83819def2]
link Guichetier to Virment de compte à compte--><g id="link_Guichetier_Virment de compte à compte"><path d="M60.919,504.364 C67.6025,408.563 89.6264,168.33 145,114 C177.181,82.43 223.628,68.98 267.646,64.18 " fill="none" id="Guichetier-to-Virment de compte à compte" style="stroke:#181818;stroke-width:1.0;"/><polygon fill="#181818" points="272.724,63.66,263.3654,60.5914,267.7497,64.166,264.175,68.5503,272.724,63.66" style="stroke:#181818;stroke-width:1.0;"/></g><!--MD5=[66d898512ab145c363abd26c647df608]
link Guichetier to Cloturer un compte--><g id="link_Guichetier_Cloturer un compte"><path d="M62.6961,504.236 C72.3273,420.935 98.8142,232.31 145,190 C188.406,150.24 255.095,141.87 308.389,142.83 " fill="none" id="Guichetier-to-Cloturer un compte" style="stroke:#181818;stroke-width:1.0;"/><polygon fill="#181818" points="313.504,142.95,304.6014,138.7378,308.5054,142.8315,304.4117,146.7355,313.504,142.95" style="stroke:#181818;stroke-width:1.0;"/></g><!--MD5=[a7889307f665c0b6be60aba10f76457c]
link Guichetier to Créer un compte--><g id="link_Guichetier_Créer un compte"><path d="M58.1938,504.432 C60.0367,442.499 73.3633,323.41 145,262 C191.719,221.95 262.516,215.17 316.523,217.12 " fill="none" id="Guichetier-to-Créer un compte" style="stroke:#181818;stroke-width:1.0;"/><polygon fill="#181818" points="321.696,217.33,312.8693,212.9609,316.7003,217.123,312.5381,220.954,321.696,217.33" style="stroke:#181818;stroke-width:1.0;"/></g><!--MD5=[909237958456fbefa482989ed812be70]
link Guichetier to Générer un relevé mensuel d’un compte en PDF--><g id="link_Guichetier_Générer un relevé mensuel d’un compte en PDF"><path d="M68.384,504.431 C80.1263,465.781 103.5538,408.207 145,376 C167.589,358.447 194.617,346.126 222.394,337.515 " fill="none" id="Guichetier-to-Générer un relevé mensuel d’un compte en PDF" style="stroke:#181818;stroke-width:1.0;"/><polygon fill="#181818" points="227.222,336.057,217.4502,334.8271,222.4351,337.5012,219.761,342.4861,227.222,336.057" style="stroke:#181818;stroke-width:1.0;"/></g><!--MD5=[64dae46f8b67d458a3e1bab514efcfbe]
link Guichetier to Gérer, ou faire le « CRUD » des prélèvements automatiques--><g id="link_Guichetier_Gérer, ou faire le « CRUD » des prélèvements automatiques"><path d="M95.03,526.425 C110.262,519.5 128.271,511.826 145,506 C174.725,495.648 206.952,486.055 238.03,477.592 " fill="none" id="Guichetier-to-Gérer, ou faire le « CRUD » des prélèvements automatiques" style="stroke:#181818;stroke-width:1.0;"/><polygon fill="#181818" points="243.007,476.244,233.2742,474.7362,238.1809,477.5512,235.3658,482.4579,243.007,476.244" style="stroke:#181818;stroke-width:1.0;"/></g><!--MD5=[489da3ec509f7949e46d2951dd220bb3]
@startuml
skinparam actorStyle awesome
:Chef d'agence:
:Guichetier:
rectangle Système {
    (Rendre inactif un client)
    (Gérer les employés)
    (Débiter un compte)
    (Consulter un compte)
    (Créer un nouveau client)
    (Modifier infos client)
    (Créditer compte)
    (Virment de compte à compte)
    (Cloturer un compte)
    (Créer un compte)
    (Générer un relevé mensuel d’un compte en PDF)
    (Gérer, ou faire le « CRUD » des prélèvements automatiques)
    (Effectuer un Débit exceptionnel)
    (Simuler un emprunt)
    (Simuler une assurance d’emprunt)
}


(Guichetier) <|-right- (Chef d'agence)

left to right direction
:Chef d'agence: - -> (Rendre inactif un client)
:Chef d'agence: - -> (Gérer les employés)
:Chef d'agence: - -> (Effectuer un Débit exceptionnel)
:Chef d'agence: - -> (Simuler un emprunt)
:Chef d'agence: - -> (Simuler une assurance d’emprunt)


(Guichetier) - -> (Débiter un compte) 
(Guichetier) - -> (Consulter un compte) 
(Guichetier) - -> (Créer un nouveau client) 
(Guichetier) - -> (Modifier infos client) 
(Guichetier) - -> (Créditer compte) 
(Guichetier) - -> (Virment de compte à compte) 
(Guichetier) - -> (Cloturer un compte) 
(Guichetier) - -> (Créer un compte) 
(Guichetier) - -> (Générer un relevé mensuel d’un compte en PDF)
(Guichetier) - -> (Gérer, ou faire le « CRUD » des prélèvements automatiques)
@enduml

PlantUML version 1.2022.4beta2(Unknown compile time)
(GPL source distribution)
Java Runtime: Java(TM) SE Runtime Environment
JVM: Java HotSpot(TM) 64-Bit Server VM
Default Encoding: UTF-8
Language: en
Country: US
--></g></svg>