<?xml version="1.0" encoding="UTF-8" standalone="no"?><svg xmlns="http://www.w3.org/2000/svg" xmlns:xlink="http://www.w3.org/1999/xlink" contentStyleType="text/css" height="292px" preserveAspectRatio="none" style="width:1044px;height:292px;background:#FFFFFF;" version="1.1" viewBox="0 0 1044 292" width="1044px" zoomAndPan="magnify"><defs/><g><line style="stroke:#181818;stroke-width:0.5;stroke-dasharray:5.0,5.0;" x1="135" x2="135" y1="36.2969" y2="256.9609"/><line style="stroke:#181818;stroke-width:0.5;stroke-dasharray:5.0,5.0;" x1="370" x2="370" y1="36.2969" y2="256.9609"/><line style="stroke:#181818;stroke-width:0.5;stroke-dasharray:5.0,5.0;" x1="560" x2="560" y1="36.2969" y2="256.9609"/><line style="stroke:#181818;stroke-width:0.5;stroke-dasharray:5.0,5.0;" x1="772" x2="772" y1="36.2969" y2="256.9609"/><line style="stroke:#181818;stroke-width:0.5;stroke-dasharray:5.0,5.0;" x1="970" x2="970" y1="36.2969" y2="256.9609"/><rect fill="#E2E2F0" height="30.2969" rx="2.5" ry="2.5" style="stroke:#181818;stroke-width:0.5;" width="261" x="5" y="5"/><text fill="#000000" font-family="sans-serif" font-size="14" lengthAdjust="spacing" textLength="247" x="12" y="24.9951">OperationsManagementController</text><rect fill="#E2E2F0" height="30.2969" rx="2.5" ry="2.5" style="stroke:#181818;stroke-width:0.5;" width="261" x="5" y="255.9609"/><text fill="#000000" font-family="sans-serif" font-size="14" lengthAdjust="spacing" textLength="247" x="12" y="275.9561">OperationsManagementController</text><rect fill="#E2E2F0" height="30.2969" rx="2.5" ry="2.5" style="stroke:#181818;stroke-width:0.5;" width="188" x="276" y="5"/><text fill="#000000" font-family="sans-serif" font-size="14" lengthAdjust="spacing" textLength="174" x="283" y="24.9951">OperationsManagement</text><rect fill="#E2E2F0" height="30.2969" rx="2.5" ry="2.5" style="stroke:#181818;stroke-width:0.5;" width="188" x="276" y="255.9609"/><text fill="#000000" font-family="sans-serif" font-size="14" lengthAdjust="spacing" textLength="174" x="283" y="275.9561">OperationsManagement</text><rect fill="#E2E2F0" height="30.2969" rx="2.5" ry="2.5" style="stroke:#181818;stroke-width:0.5;" width="166" x="477" y="5"/><text fill="#000000" font-family="sans-serif" font-size="14" lengthAdjust="spacing" textLength="152" x="484" y="24.9951">OperationEditorPane</text><rect fill="#E2E2F0" height="30.2969" rx="2.5" ry="2.5" style="stroke:#181818;stroke-width:0.5;" width="166" x="477" y="255.9609"/><text fill="#000000" font-family="sans-serif" font-size="14" lengthAdjust="spacing" textLength="152" x="484" y="275.9561">OperationEditorPane</text><rect fill="#E2E2F0" height="30.2969" rx="2.5" ry="2.5" style="stroke:#181818;stroke-width:0.5;" width="239" x="653" y="5"/><text fill="#000000" font-family="sans-serif" font-size="14" lengthAdjust="spacing" textLength="225" x="660" y="24.9951">OperationEditorPaneController</text><rect fill="#E2E2F0" height="30.2969" rx="2.5" ry="2.5" style="stroke:#181818;stroke-width:0.5;" width="239" x="653" y="255.9609"/><text fill="#000000" font-family="sans-serif" font-size="14" lengthAdjust="spacing" textLength="225" x="660" y="275.9561">OperationEditorPaneController</text><rect fill="#E2E2F0" height="30.2969" rx="2.5" ry="2.5" style="stroke:#181818;stroke-width:0.5;" width="136" x="902" y="5"/><text fill="#000000" font-family="sans-serif" font-size="14" lengthAdjust="spacing" textLength="122" x="909" y="24.9951">AccessOperation</text><rect fill="#E2E2F0" height="30.2969" rx="2.5" ry="2.5" style="stroke:#181818;stroke-width:0.5;" width="136" x="902" y="255.9609"/><text fill="#000000" font-family="sans-serif" font-size="14" lengthAdjust="spacing" textLength="122" x="909" y="275.9561">AccessOperation</text><polygon fill="#181818" points="358,63.4297,368,67.4297,358,71.4297,362,67.4297" style="stroke:#181818;stroke-width:1.0;"/><line style="stroke:#181818;stroke-width:1.0;" x1="135.5" x2="364" y1="67.4297" y2="67.4297"/><text fill="#000000" font-family="sans-serif" font-size="13" lengthAdjust="spacing" textLength="64" x="142.5" y="62.3638">doCredit()</text><polygon fill="#181818" points="548,92.5625,558,96.5625,548,100.5625,552,96.5625" style="stroke:#181818;stroke-width:1.0;"/><line style="stroke:#181818;stroke-width:1.0;" x1="370" x2="554" y1="96.5625" y2="96.5625"/><text fill="#000000" font-family="sans-serif" font-size="13" lengthAdjust="spacing" textLength="166" x="377" y="91.4966">doOperationEditorDialog()</text><polygon fill="#181818" points="760.5,121.6953,770.5,125.6953,760.5,129.6953,764.5,125.6953" style="stroke:#181818;stroke-width:1.0;"/><line style="stroke:#181818;stroke-width:1.0;" x1="560" x2="766.5" y1="125.6953" y2="125.6953"/><text fill="#000000" font-family="sans-serif" font-size="13" lengthAdjust="spacing" textLength="95" x="567" y="120.6294">displayDialog()</text><line style="stroke:#181818;stroke-width:1.0;" x1="772.5" x2="814.5" y1="154.8281" y2="154.8281"/><line style="stroke:#181818;stroke-width:1.0;" x1="814.5" x2="814.5" y1="154.8281" y2="167.8281"/><line style="stroke:#181818;stroke-width:1.0;" x1="773.5" x2="814.5" y1="167.8281" y2="167.8281"/><polygon fill="#181818" points="783.5,163.8281,773.5,167.8281,783.5,171.8281,779.5,167.8281" style="stroke:#181818;stroke-width:1.0;"/><text fill="#000000" font-family="sans-serif" font-size="13" lengthAdjust="spacing" textLength="72" x="779.5" y="149.7622">doAjouter()</text><polygon fill="#181818" points="571,177.8281,561,181.8281,571,185.8281,567,181.8281" style="stroke:#181818;stroke-width:1.0;"/><line style="stroke:#181818;stroke-width:1.0;stroke-dasharray:2.0,2.0;" x1="565" x2="771.5" y1="181.8281" y2="181.8281"/><polygon fill="#181818" points="381,191.8281,371,195.8281,381,199.8281,377,195.8281" style="stroke:#181818;stroke-width:1.0;"/><line style="stroke:#181818;stroke-width:1.0;stroke-dasharray:2.0,2.0;" x1="375" x2="559" y1="195.8281" y2="195.8281"/><polygon fill="#181818" points="958,220.9609,968,224.9609,958,228.9609,962,224.9609" style="stroke:#181818;stroke-width:1.0;"/><line style="stroke:#181818;stroke-width:1.0;" x1="370" x2="964" y1="224.9609" y2="224.9609"/><text fill="#000000" font-family="sans-serif" font-size="13" lengthAdjust="spacing" textLength="84" x="377" y="219.895">insertCredit()</text><polygon fill="#181818" points="381,234.9609,371,238.9609,381,242.9609,377,238.9609" style="stroke:#181818;stroke-width:1.0;"/><line style="stroke:#181818;stroke-width:1.0;stroke-dasharray:2.0,2.0;" x1="375" x2="969" y1="238.9609" y2="238.9609"/><!--MD5=[80cf38dc3d28a0763910d8052f961faf]
@startuml
OperationsManagementController -> OperationsManagement : doCredit()
    OperationsManagement -> OperationEditorPane : doOperationEditorDialog()
        OperationEditorPane -> OperationEditorPaneController : displayDialog()
        OperationEditorPaneController -> OperationEditorPaneController : doAjouter()
        OperationEditorPane <- - OperationEditorPaneController
    OperationsManagement <- - OperationEditorPane
        OperationsManagement -> AccessOperation : insertCredit()
        OperationsManagement <- - AccessOperation
@enduml

PlantUML version 1.2022.6beta5(Unknown compile time)
(GPL source distribution)
Java Runtime: Java(TM) SE Runtime Environment
JVM: Java HotSpot(TM) 64-Bit Server VM
Default Encoding: UTF-8
Language: en
Country: US
--></g></svg>