<?xml version="1.0" encoding="UTF-8" standalone="no"?><svg xmlns="http://www.w3.org/2000/svg" xmlns:xlink="http://www.w3.org/1999/xlink" contentStyleType="text/css" height="306px" preserveAspectRatio="none" style="width:1006px;height:306px;background:#FFFFFF;" version="1.1" viewBox="0 0 1006 306" width="1006px" zoomAndPan="magnify"><defs/><g><line style="stroke:#181818;stroke-width:0.5;stroke-dasharray:5.0,5.0;" x1="120" x2="120" y1="36.2969" y2="270.9609"/><line style="stroke:#181818;stroke-width:0.5;stroke-dasharray:5.0,5.0;" x1="325" x2="325" y1="36.2969" y2="270.9609"/><line style="stroke:#181818;stroke-width:0.5;stroke-dasharray:5.0,5.0;" x1="501" x2="501" y1="36.2969" y2="270.9609"/><line style="stroke:#181818;stroke-width:0.5;stroke-dasharray:5.0,5.0;" x1="732.5" x2="732.5" y1="36.2969" y2="270.9609"/><line style="stroke:#181818;stroke-width:0.5;stroke-dasharray:5.0,5.0;" x1="894.5" x2="894.5" y1="36.2969" y2="270.9609"/><rect fill="#E2E2F0" height="30.2969" rx="2.5" ry="2.5" style="stroke:#181818;stroke-width:0.5;" width="231" x="5" y="5"/><text fill="#000000" font-family="sans-serif" font-size="14" lengthAdjust="spacing" textLength="217" x="12" y="24.9951">ClientsManagementController</text><rect fill="#E2E2F0" height="30.2969" rx="2.5" ry="2.5" style="stroke:#181818;stroke-width:0.5;" width="231" x="5" y="269.9609"/><text fill="#000000" font-family="sans-serif" font-size="14" lengthAdjust="spacing" textLength="217" x="12" y="289.9561">ClientsManagementController</text><rect fill="#E2E2F0" height="30.2969" rx="2.5" ry="2.5" style="stroke:#181818;stroke-width:0.5;" width="158" x="246" y="5"/><text fill="#000000" font-family="sans-serif" font-size="14" lengthAdjust="spacing" textLength="144" x="253" y="24.9951">ClientsManagement</text><rect fill="#E2E2F0" height="30.2969" rx="2.5" ry="2.5" style="stroke:#181818;stroke-width:0.5;" width="158" x="246" y="269.9609"/><text fill="#000000" font-family="sans-serif" font-size="14" lengthAdjust="spacing" textLength="144" x="253" y="289.9561">ClientsManagement</text><rect fill="#E2E2F0" height="30.2969" rx="2.5" ry="2.5" style="stroke:#181818;stroke-width:0.5;" width="174" x="414" y="5"/><text fill="#000000" font-family="sans-serif" font-size="14" lengthAdjust="spacing" textLength="160" x="421" y="24.9951">ComptesManagement</text><rect fill="#E2E2F0" height="30.2969" rx="2.5" ry="2.5" style="stroke:#181818;stroke-width:0.5;" width="174" x="414" y="269.9609"/><text fill="#000000" font-family="sans-serif" font-size="14" lengthAdjust="spacing" textLength="160" x="421" y="289.9561">ComptesManagement</text><rect fill="#E2E2F0" height="30.2969" rx="2.5" ry="2.5" style="stroke:#181818;stroke-width:0.5;" width="247" x="609.5" y="5"/><text fill="#000000" font-family="sans-serif" font-size="14" lengthAdjust="spacing" textLength="233" x="616.5" y="24.9951">ComptesManagementController</text><rect fill="#E2E2F0" height="30.2969" rx="2.5" ry="2.5" style="stroke:#181818;stroke-width:0.5;" width="247" x="609.5" y="269.9609"/><text fill="#000000" font-family="sans-serif" font-size="14" lengthAdjust="spacing" textLength="233" x="616.5" y="289.9561">ComptesManagementController</text><rect fill="#E2E2F0" height="30.2969" rx="2.5" ry="2.5" style="stroke:#181818;stroke-width:0.5;" width="56" x="866.5" y="5"/><text fill="#000000" font-family="sans-serif" font-size="14" lengthAdjust="spacing" textLength="42" x="873.5" y="24.9951">Stage</text><rect fill="#E2E2F0" height="30.2969" rx="2.5" ry="2.5" style="stroke:#181818;stroke-width:0.5;" width="56" x="866.5" y="269.9609"/><text fill="#000000" font-family="sans-serif" font-size="14" lengthAdjust="spacing" textLength="42" x="873.5" y="289.9561">Stage</text><polygon fill="#181818" points="313,63.4297,323,67.4297,313,71.4297,317,67.4297" style="stroke:#181818;stroke-width:1.0;"/><line style="stroke:#181818;stroke-width:1.0;" x1="120.5" x2="319" y1="67.4297" y2="67.4297"/><text fill="#000000" font-family="sans-serif" font-size="13" lengthAdjust="spacing" textLength="120" x="127.5" y="62.3638">doComptesClient()</text><polygon fill="#181818" points="489,92.5625,499,96.5625,489,100.5625,493,96.5625" style="stroke:#181818;stroke-width:1.0;"/><line style="stroke:#181818;stroke-width:1.0;" x1="325" x2="495" y1="96.5625" y2="96.5625"/><text fill="#000000" font-family="sans-serif" font-size="13" lengthAdjust="spacing" textLength="138" x="332" y="91.4966">gererComptesClient()</text><polygon fill="#181818" points="721,121.6953,731,125.6953,721,129.6953,725,125.6953" style="stroke:#181818;stroke-width:1.0;"/><line style="stroke:#181818;stroke-width:1.0;" x1="501" x2="727" y1="125.6953" y2="125.6953"/><text fill="#000000" font-family="sans-serif" font-size="13" lengthAdjust="spacing" textLength="208" x="508" y="120.6294">doComptesManagementDialog()</text><polygon fill="#181818" points="882.5,150.8281,892.5,154.8281,882.5,158.8281,886.5,154.8281" style="stroke:#181818;stroke-width:1.0;"/><line style="stroke:#181818;stroke-width:1.0;" x1="733" x2="888.5" y1="154.8281" y2="154.8281"/><text fill="#000000" font-family="sans-serif" font-size="13" lengthAdjust="spacing" textLength="95" x="740" y="149.7622">displayDialog()</text><line style="stroke:#181818;stroke-width:1.0;" x1="894.5" x2="936.5" y1="183.9609" y2="183.9609"/><line style="stroke:#181818;stroke-width:1.0;" x1="936.5" x2="936.5" y1="183.9609" y2="196.9609"/><line style="stroke:#181818;stroke-width:1.0;" x1="895.5" x2="936.5" y1="196.9609" y2="196.9609"/><polygon fill="#181818" points="905.5,192.9609,895.5,196.9609,905.5,200.9609,901.5,196.9609" style="stroke:#181818;stroke-width:1.0;"/><text fill="#000000" font-family="sans-serif" font-size="13" lengthAdjust="spacing" textLength="98" x="901.5" y="178.895">showAndWait()</text><polygon fill="#181818" points="744,206.9609,734,210.9609,744,214.9609,740,210.9609" style="stroke:#181818;stroke-width:1.0;"/><line style="stroke:#181818;stroke-width:1.0;stroke-dasharray:2.0,2.0;" x1="738" x2="893.5" y1="210.9609" y2="210.9609"/><polygon fill="#181818" points="512,220.9609,502,224.9609,512,228.9609,508,224.9609" style="stroke:#181818;stroke-width:1.0;"/><line style="stroke:#181818;stroke-width:1.0;stroke-dasharray:2.0,2.0;" x1="506" x2="732" y1="224.9609" y2="224.9609"/><polygon fill="#181818" points="336,234.9609,326,238.9609,336,242.9609,332,238.9609" style="stroke:#181818;stroke-width:1.0;"/><line style="stroke:#181818;stroke-width:1.0;stroke-dasharray:2.0,2.0;" x1="330" x2="500" y1="238.9609" y2="238.9609"/><polygon fill="#181818" points="131.5,248.9609,121.5,252.9609,131.5,256.9609,127.5,252.9609" style="stroke:#181818;stroke-width:1.0;"/><line style="stroke:#181818;stroke-width:1.0;stroke-dasharray:2.0,2.0;" x1="125.5" x2="324" y1="252.9609" y2="252.9609"/><!--MD5=[8a71f52bf7913e88f2750e2132c16b48]
@startuml
ClientsManagementController -> ClientsManagement : doComptesClient()  
    ClientsManagement -> ComptesManagement : gererComptesClient()
        ComptesManagement -> ComptesManagementController : doComptesManagementDialog()
            ComptesManagementController -> Stage : displayDialog()
                Stage -> Stage : showAndWait()
            Stage - -> ComptesManagementController
        ComptesManagementController - -> ComptesManagement
    ComptesManagement - -> ClientsManagement
ClientsManagement - -> ClientsManagementController
@enduml

PlantUML version 1.2022.6beta1(Unknown compile time)
(GPL source distribution)
Java Runtime: Java(TM) SE Runtime Environment
JVM: Java HotSpot(TM) 64-Bit Server VM
Default Encoding: UTF-8
Language: en
Country: US
--></g></svg>