<?xml version="1.0" encoding="UTF-8" standalone="no"?><svg xmlns="http://www.w3.org/2000/svg" xmlns:xlink="http://www.w3.org/1999/xlink" contentStyleType="text/css" height="219px" preserveAspectRatio="none" style="width:572px;height:219px;background:#FFFFFF;" version="1.1" viewBox="0 0 572 219" width="572px" zoomAndPan="magnify"><defs/><g><line style="stroke:#181818;stroke-width:0.5;stroke-dasharray:5.0,5.0;" x1="120" x2="120" y1="36.2969" y2="184.6953"/><line style="stroke:#181818;stroke-width:0.5;stroke-dasharray:5.0,5.0;" x1="325" x2="325" y1="36.2969" y2="184.6953"/><line style="stroke:#181818;stroke-width:0.5;stroke-dasharray:5.0,5.0;" x1="467" x2="467" y1="36.2969" y2="184.6953"/><rect fill="#E2E2F0" height="30.2969" rx="2.5" ry="2.5" style="stroke:#181818;stroke-width:0.5;" width="231" x="5" y="5"/><text fill="#000000" font-family="sans-serif" font-size="14" lengthAdjust="spacing" textLength="217" x="12" y="24.9951">ClientsManagementController</text><rect fill="#E2E2F0" height="30.2969" rx="2.5" ry="2.5" style="stroke:#181818;stroke-width:0.5;" width="231" x="5" y="183.6953"/><text fill="#000000" font-family="sans-serif" font-size="14" lengthAdjust="spacing" textLength="217" x="12" y="203.6904">ClientsManagementController</text><rect fill="#E2E2F0" height="30.2969" rx="2.5" ry="2.5" style="stroke:#181818;stroke-width:0.5;" width="158" x="246" y="5"/><text fill="#000000" font-family="sans-serif" font-size="14" lengthAdjust="spacing" textLength="144" x="253" y="24.9951">ClientsManagement</text><rect fill="#E2E2F0" height="30.2969" rx="2.5" ry="2.5" style="stroke:#181818;stroke-width:0.5;" width="158" x="246" y="183.6953"/><text fill="#000000" font-family="sans-serif" font-size="14" lengthAdjust="spacing" textLength="144" x="253" y="203.6904">ClientsManagement</text><rect fill="#E2E2F0" height="30.2969" rx="2.5" ry="2.5" style="stroke:#181818;stroke-width:0.5;" width="106" x="414" y="5"/><text fill="#000000" font-family="sans-serif" font-size="14" lengthAdjust="spacing" textLength="92" x="421" y="24.9951">AccessClient</text><rect fill="#E2E2F0" height="30.2969" rx="2.5" ry="2.5" style="stroke:#181818;stroke-width:0.5;" width="106" x="414" y="183.6953"/><text fill="#000000" font-family="sans-serif" font-size="14" lengthAdjust="spacing" textLength="92" x="421" y="203.6904">AccessClient</text><polygon fill="#181818" points="313,63.4297,323,67.4297,313,71.4297,317,67.4297" style="stroke:#181818;stroke-width:1.0;"/><line style="stroke:#181818;stroke-width:1.0;" x1="120.5" x2="319" y1="67.4297" y2="67.4297"/><text fill="#000000" font-family="sans-serif" font-size="13" lengthAdjust="spacing" textLength="112" x="127.5" y="62.3638">doModifierClient()</text><polygon fill="#181818" points="455,92.5625,465,96.5625,455,100.5625,459,96.5625" style="stroke:#181818;stroke-width:1.0;"/><line style="stroke:#181818;stroke-width:1.0;" x1="325" x2="461" y1="96.5625" y2="96.5625"/><text fill="#000000" font-family="sans-serif" font-size="13" lengthAdjust="spacing" textLength="99" x="332" y="91.4966">modifierClient()</text><line style="stroke:#181818;stroke-width:1.0;" x1="467" x2="509" y1="125.6953" y2="125.6953"/><line style="stroke:#181818;stroke-width:1.0;" x1="509" x2="509" y1="125.6953" y2="138.6953"/><line style="stroke:#181818;stroke-width:1.0;" x1="468" x2="509" y1="138.6953" y2="138.6953"/><polygon fill="#181818" points="478,134.6953,468,138.6953,478,142.6953,474,138.6953" style="stroke:#181818;stroke-width:1.0;"/><text fill="#000000" font-family="sans-serif" font-size="13" lengthAdjust="spacing" textLength="91" x="474" y="120.6294">updateClient()</text><polygon fill="#181818" points="336,148.6953,326,152.6953,336,156.6953,332,152.6953" style="stroke:#181818;stroke-width:1.0;"/><line style="stroke:#181818;stroke-width:1.0;stroke-dasharray:2.0,2.0;" x1="330" x2="466" y1="152.6953" y2="152.6953"/><polygon fill="#181818" points="131.5,162.6953,121.5,166.6953,131.5,170.6953,127.5,166.6953" style="stroke:#181818;stroke-width:1.0;"/><line style="stroke:#181818;stroke-width:1.0;stroke-dasharray:2.0,2.0;" x1="125.5" x2="324" y1="166.6953" y2="166.6953"/><!--MD5=[638dc6c2f5db15cc55cc2c623496dfd0]
@startuml
ClientsManagementController -> ClientsManagement : doModifierClient()
    ClientsManagement -> AccessClient : modifierClient()
        AccessClient -> AccessClient : updateClient()
    AccessClient - -> ClientsManagement
ClientsManagement - -> ClientsManagementController
@enduml

PlantUML version 1.2022.6beta1(Unknown compile time)
(GPL source distribution)
Java Runtime: Java(TM) SE Runtime Environment
JVM: Java HotSpot(TM) 64-Bit Server VM
Default Encoding: UTF-8
Language: en
Country: US
--></g></svg>