<?xml version="1.0" encoding="UTF-8" standalone="no"?><svg xmlns="http://www.w3.org/2000/svg" xmlns:xlink="http://www.w3.org/1999/xlink" contentStyleType="text/css" height="205px" preserveAspectRatio="none" style="width:686px;height:205px;background:#FFFFFF;" version="1.1" viewBox="0 0 686 205" width="686px" zoomAndPan="magnify"><defs/><g><line style="stroke:#181818;stroke-width:0.5;stroke-dasharray:5.0,5.0;" x1="135" x2="135" y1="36.2969" y2="170.6953"/><line style="stroke:#181818;stroke-width:0.5;stroke-dasharray:5.0,5.0;" x1="353" x2="353" y1="36.2969" y2="170.6953"/><line style="stroke:#181818;stroke-width:0.5;stroke-dasharray:5.0,5.0;" x1="560" x2="560" y1="36.2969" y2="170.6953"/><rect fill="#E2E2F0" height="30.2969" rx="2.5" ry="2.5" style="stroke:#181818;stroke-width:0.5;" width="261" x="5" y="5"/><text fill="#000000" font-family="sans-serif" font-size="14" lengthAdjust="spacing" textLength="247" x="12" y="24.9951">OperationsManagementController</text><rect fill="#E2E2F0" height="30.2969" rx="2.5" ry="2.5" style="stroke:#181818;stroke-width:0.5;" width="261" x="5" y="169.6953"/><text fill="#000000" font-family="sans-serif" font-size="14" lengthAdjust="spacing" textLength="247" x="12" y="189.6904">OperationsManagementController</text><rect fill="#E2E2F0" height="30.2969" rx="2.5" ry="2.5" style="stroke:#181818;stroke-width:0.5;" width="155" x="276" y="5"/><text fill="#000000" font-family="sans-serif" font-size="14" lengthAdjust="spacing" textLength="141" x="283" y="24.9951">VirementController</text><rect fill="#E2E2F0" height="30.2969" rx="2.5" ry="2.5" style="stroke:#181818;stroke-width:0.5;" width="155" x="276" y="169.6953"/><text fill="#000000" font-family="sans-serif" font-size="14" lengthAdjust="spacing" textLength="141" x="283" y="189.6904">VirementController</text><rect fill="#E2E2F0" height="30.2969" rx="2.5" ry="2.5" style="stroke:#181818;stroke-width:0.5;" width="239" x="441" y="5"/><text fill="#000000" font-family="sans-serif" font-size="14" lengthAdjust="spacing" textLength="225" x="448" y="24.9951">OperationEditorPaneController</text><rect fill="#E2E2F0" height="30.2969" rx="2.5" ry="2.5" style="stroke:#181818;stroke-width:0.5;" width="239" x="441" y="169.6953"/><text fill="#000000" font-family="sans-serif" font-size="14" lengthAdjust="spacing" textLength="225" x="448" y="189.6904">OperationEditorPaneController</text><polygon fill="#181818" points="341.5,63.4297,351.5,67.4297,341.5,71.4297,345.5,67.4297" style="stroke:#181818;stroke-width:1.0;"/><line style="stroke:#181818;stroke-width:1.0;" x1="135.5" x2="347.5" y1="67.4297" y2="67.4297"/><text fill="#000000" font-family="sans-serif" font-size="13" lengthAdjust="spacing" textLength="85" x="142.5" y="62.3638">doVirement()</text><polygon fill="#181818" points="548.5,92.5625,558.5,96.5625,548.5,100.5625,552.5,96.5625" style="stroke:#181818;stroke-width:1.0;"/><line style="stroke:#181818;stroke-width:1.0;" x1="353.5" x2="554.5" y1="96.5625" y2="96.5625"/><text fill="#000000" font-family="sans-serif" font-size="13" lengthAdjust="spacing" textLength="122" x="360.5" y="91.4966">envoyerVirement()</text><line style="stroke:#181818;stroke-width:1.0;" x1="560.5" x2="602.5" y1="125.6953" y2="125.6953"/><line style="stroke:#181818;stroke-width:1.0;" x1="602.5" x2="602.5" y1="125.6953" y2="138.6953"/><line style="stroke:#181818;stroke-width:1.0;" x1="561.5" x2="602.5" y1="138.6953" y2="138.6953"/><polygon fill="#181818" points="571.5,134.6953,561.5,138.6953,571.5,142.6953,567.5,138.6953" style="stroke:#181818;stroke-width:1.0;"/><text fill="#000000" font-family="sans-serif" font-size="13" lengthAdjust="spacing" textLength="72" x="567.5" y="120.6294">doAjouter()</text><polygon fill="#181818" points="146.5,148.6953,136.5,152.6953,146.5,156.6953,142.5,152.6953" style="stroke:#181818;stroke-width:1.0;"/><line style="stroke:#181818;stroke-width:1.0;stroke-dasharray:2.0,2.0;" x1="140.5" x2="559.5" y1="152.6953" y2="152.6953"/><!--MD5=[a1b006874b40eb4af3ffa5c1c7ba3c98]
@startuml
OperationsManagementController -> VirementController : doVirement()
    VirementController -> OperationEditorPaneController : envoyerVirement()
    OperationEditorPaneController -> OperationEditorPaneController : doAjouter()
    OperationsManagementController <- - OperationEditorPaneController
@enduml

PlantUML version 1.2022.6beta5(Unknown compile time)
(GPL source distribution)
Java Runtime: Java(TM) SE Runtime Environment
JVM: Java HotSpot(TM) 64-Bit Server VM
Default Encoding: UTF-8
Language: en
Country: US
--></g></svg>