<?xml version="1.0" encoding="UTF-8" standalone="no"?><svg xmlns="http://www.w3.org/2000/svg" xmlns:xlink="http://www.w3.org/1999/xlink" contentStyleType="text/css" height="1623px" preserveAspectRatio="none" style="width:641px;height:1623px;background:#FFFFFF;" version="1.1" viewBox="0 0 641 1623" width="641px" zoomAndPan="magnify"><defs/><g><!--MD5=[6ea93574f71f75ac542a4032e198fe98]
cluster Système--><g id="cluster_Système"><rect height="1610" rx="2.5" ry="2.5" style="stroke:#181818;stroke-width:1.0;fill:none;" width="482" x="153" y="7"/><text fill="#000000" font-family="sans-serif" font-size="14" font-weight="bold" lengthAdjust="spacing" textLength="69" x="359.5" y="21.9951">Système</text></g><g id="elem_Rendre inactif un client"><ellipse cx="393.7923" cy="1033.7585" fill="#F1F1F1" rx="101.7923" ry="22.7585" style="stroke:#181818;stroke-width:0.5;"/><text fill="#000000" font-family="sans-serif" font-size="14" lengthAdjust="spacing" textLength="168" x="309.7923" y="1036.6051">Rendre inactif un client</text></g><g id="elem_Gérer les employés"><ellipse cx="393.7915" cy="1112.1583" fill="#F1F1F1" rx="88.7915" ry="20.1583" style="stroke:#181818;stroke-width:0.5;"/><text fill="#000000" font-family="sans-serif" font-size="14" lengthAdjust="spacing" textLength="139" x="324.2915" y="1115.005">Gérer les employés</text></g><g id="elem_Débiter un compte"><ellipse cx="393.8518" cy="774.0704" fill="#F1F1F1" rx="88.3518" ry="20.0704" style="stroke:#181818;stroke-width:0.5;"/><text fill="#000000" font-family="sans-serif" font-size="14" lengthAdjust="spacing" textLength="138" x="324.8518" y="776.917">Débiter un compte</text></g><g id="elem_Consulter un compte"><ellipse cx="394.1163" cy="850.2233" fill="#F1F1F1" rx="94.1163" ry="21.2233" style="stroke:#181818;stroke-width:0.5;"/><text fill="#000000" font-family="sans-serif" font-size="14" lengthAdjust="spacing" textLength="151" x="318.6163" y="853.0699">Consulter un compte</text></g><g id="elem_Créer un nouveau client"><ellipse cx="394.2481" cy="64.8496" fill="#F1F1F1" rx="102.2481" ry="22.8496" style="stroke:#181818;stroke-width:0.5;"/><text fill="#000000" font-family="sans-serif" font-size="14" lengthAdjust="spacing" textLength="169" x="309.7481" y="67.6963">Créer un nouveau client</text></g><g id="elem_Modifier infos client"><ellipse cx="394.0567" cy="144.0113" fill="#F1F1F1" rx="90.5567" ry="20.5113" style="stroke:#181818;stroke-width:0.5;"/><text fill="#000000" font-family="sans-serif" font-size="14" lengthAdjust="spacing" textLength="143" x="322.5567" y="146.858">Modifier infos client</text></g><g id="elem_Créditer compte"><ellipse cx="394.0271" cy="218.1054" fill="#F1F1F1" rx="81.0271" ry="18.6054" style="stroke:#181818;stroke-width:0.5;"/><text fill="#000000" font-family="sans-serif" font-size="14" lengthAdjust="spacing" textLength="121" x="332.2415" y="221.3718">Créditer compte</text></g><g id="elem_Virment de compte à compte"><ellipse cx="394.0909" cy="299.1182" fill="#F1F1F1" rx="123.5909" ry="27.1182" style="stroke:#181818;stroke-width:0.5;"/><text fill="#000000" font-family="sans-serif" font-size="14" lengthAdjust="spacing" textLength="215" x="286.5909" y="301.9649">Virment de compte à compte</text></g><g id="elem_Cloturer un compte"><ellipse cx="394.1728" cy="381.8346" fill="#F1F1F1" rx="89.6728" ry="20.3346" style="stroke:#181818;stroke-width:0.5;"/><text fill="#000000" font-family="sans-serif" font-size="14" lengthAdjust="spacing" textLength="141" x="323.6728" y="384.6812">Cloturer un compte</text></g><g id="elem_Créer un compte"><ellipse cx="393.9455" cy="456.1891" fill="#F1F1F1" rx="81.4455" ry="18.6891" style="stroke:#181818;stroke-width:0.5;"/><text fill="#000000" font-family="sans-serif" font-size="14" lengthAdjust="spacing" textLength="122" x="331.8109" y="459.409">Créer un compte</text></g><g id="elem_Générer un relevé mensuel d’un compte en PDF"><ellipse cx="394.1285" cy="548.8257" fill="#F1F1F1" rx="184.6285" ry="39.3257" style="stroke:#181818;stroke-width:0.5;"/><text fill="#000000" font-family="sans-serif" font-size="14" lengthAdjust="spacing" textLength="342" x="223.1285" y="551.6724">Générer un relevé mensuel d’un compte en PDF</text></g><g id="elem_Gérer, ou faire le « CRUD » des prélèvements automatiques"><ellipse cx="393.7745" cy="670.8549" fill="#F1F1F1" rx="224.7745" ry="47.3549" style="stroke:#181818;stroke-width:0.5;"/><text fill="#000000" font-family="sans-serif" font-size="14" lengthAdjust="spacing" textLength="424" x="181.7745" y="673.7016">Gérer, ou faire le « CRUD » des prélèvements automatiques</text></g><g id="elem_Effectuer un Débit exceptionnel"><ellipse cx="394.0975" cy="1195.8195" fill="#F1F1F1" rx="132.0975" ry="28.8195" style="stroke:#181818;stroke-width:0.5;"/><text fill="#000000" font-family="sans-serif" font-size="14" lengthAdjust="spacing" textLength="233" x="277.5975" y="1198.6662">Effectuer un Débit exceptionnel</text></g><g id="elem_Simuler un emprunt"><ellipse cx="394.1144" cy="1280.9229" fill="#F1F1F1" rx="90.1144" ry="20.4229" style="stroke:#181818;stroke-width:0.5;"/><text fill="#000000" font-family="sans-serif" font-size="14" lengthAdjust="spacing" textLength="142" x="323.1144" y="1283.7696">Simuler un emprunt</text></g><g id="elem_Simuler une assurance d’emprunt"><ellipse cx="393.9721" cy="1471.7944" fill="#F1F1F1" rx="134.4721" ry="29.2944" style="stroke:#181818;stroke-width:0.5;"/><text fill="#000000" font-family="sans-serif" font-size="14" lengthAdjust="spacing" textLength="238" x="274.9721" y="1474.6411">Simuler une assurance d’emprunt</text></g><g id="elem_fonctionnalité supplémentaire éventuelle"><ellipse cx="394.2325" cy="1372.2465" fill="#F1F1F1" rx="164.2325" ry="35.2465" style="stroke:#181818;stroke-width:0.5;"/><text fill="#000000" font-family="sans-serif" font-size="14" lengthAdjust="spacing" textLength="300" x="244.2325" y="1375.0932">fonctionnalité supplémentaire éventuelle</text></g><g id="elem_Générer les relevés mensuels en PDF"><ellipse cx="393.8886" cy="1568.7777" fill="#F1F1F1" rx="146.8886" ry="31.7777" style="stroke:#181818;stroke-width:0.5;"/><text fill="#000000" font-family="sans-serif" font-size="14" lengthAdjust="spacing" textLength="264" x="261.8886" y="1571.6244">Générer les relevés mensuels en PDF</text></g><g id="elem_Exécuter les prélèvements automatiques"><ellipse cx="393.8149" cy="940.763" fill="#F1F1F1" rx="161.8149" ry="34.763" style="stroke:#181818;stroke-width:0.5;"/><text fill="#000000" font-family="sans-serif" font-size="14" lengthAdjust="spacing" textLength="295" x="246.3149" y="943.6097">Exécuter les prélèvements automatiques</text></g><!--MD5=[634022ffb0ee2fe3da972e9a474208da]
entity Chef d'agence--><g id="elem_Chef d'agence"><ellipse cx="57.5" cy="1132" fill="#F1F1F1" rx="16" ry="16" style="stroke:#181818;stroke-width:1.5;"/><path d="M57.5,1152 C61.5,1152 64.5,1152 68.5,1148 C76.5,1148 84.5,1156 84.5,1164 L84.5,1168 C84.5,1172 80.5,1176 76.5,1176 L38.5,1176 C34.5,1176 30.5,1172 30.5,1168 L30.5,1164 C30.5,1156 38.5,1148 46.5,1148 C50.5,1152 53.5,1152 57.5,1152 " fill="#F1F1F1" style="stroke:#181818;stroke-width:1.5;"/><text fill="#000000" font-family="sans-serif" font-size="14" lengthAdjust="spacing" textLength="103" x="6" y="1190.4951">Chef d'agence</text></g><!--MD5=[34413ead84916979ab18eea1b2c854c1]
entity Guichetier--><g id="elem_Guichetier"><ellipse cx="57.5" cy="434" fill="#F1F1F1" rx="16" ry="16" style="stroke:#181818;stroke-width:1.5;"/><path d="M57.5,454 C61.5,454 64.5,454 68.5,450 C76.5,450 84.5,458 84.5,466 L84.5,470 C84.5,474 80.5,478 76.5,478 L38.5,478 C34.5,478 30.5,474 30.5,470 L30.5,466 C30.5,458 38.5,450 46.5,450 C50.5,454 53.5,454 57.5,454 " fill="#F1F1F1" style="stroke:#181818;stroke-width:1.5;"/><text fill="#000000" font-family="sans-serif" font-size="14" lengthAdjust="spacing" textLength="75" x="20" y="492.4951">Guichetier</text></g><!--MD5=[569a56ac7f04f53b13f50c0e874c4f09]
reverse link Guichetier to Chef d'agence--><g id="link_Guichetier_Chef d'agence"><path d="M57.5,515.79 C57.5,715.351 57.5,914.908 57.5,1114.465 " fill="none" id="Guichetier-backto-Chef d'agence" style="stroke:#181818;stroke-width:1.0;"/><polygon fill="none" points="50.5001,515.55,57.5,495.55,64.5001,515.55,50.5001,515.55" style="stroke:#181818;stroke-width:1.0;"/></g><!--MD5=[fa2e395e32982047f577df944f1ae0e3]
link Chef d'agence to Rendre inactif un client--><g id="link_Chef d'agence_Rendre inactif un client"><path d="M91.8887,1114.399 C106.639,1099.421 125.138,1083.672 145,1074 C188.891,1052.628 241.813,1042.298 287.478,1037.44 " fill="none" id="Chef d'agence-to-Rendre inactif un client" style="stroke:#181818;stroke-width:1.0;"/><polygon fill="#181818" points="292.725,1036.903,283.3639,1033.8421,287.7511,1037.4131,284.18,1041.8003,292.725,1036.903" style="stroke:#181818;stroke-width:1.0;"/></g><!--MD5=[c117574e404b72ccce671cda296f7818]
link Chef d'agence to Gérer les employés--><g id="link_Chef d'agence_Gérer les employés"><path d="M109.303,1147.621 C162.722,1140.914 247.604,1130.256 310.619,1122.344 " fill="none" id="Chef d'agence-to-Gérer les employés" style="stroke:#181818;stroke-width:1.0;"/><polygon fill="#181818" points="315.88,1121.683,306.4518,1118.8352,310.9189,1122.3058,307.4483,1126.7729,315.88,1121.683" style="stroke:#181818;stroke-width:1.0;"/></g><!--MD5=[40710a5d42454481e3338f5e9d807a10]
link Chef d'agence to Effectuer un Débit exceptionnel--><g id="link_Chef d'agence_Effectuer un Débit exceptionnel"><path d="M109.303,1160.379 C152.857,1165.848 217.327,1173.942 273.807,1181.034 " fill="none" id="Chef d'agence-to-Effectuer un Débit exceptionnel" style="stroke:#181818;stroke-width:1.0;"/><polygon fill="#181818" points="278.898,1181.673,270.4663,1176.5831,273.9369,1181.0502,269.4698,1184.5208,278.898,1181.673" style="stroke:#181818;stroke-width:1.0;"/></g><!--MD5=[75c2df6dd4eaa4a435a7add9e37852fd]
link Chef d'agence to Simuler un emprunt--><g id="link_Chef d'agence_Simuler un emprunt"><path d="M87.5973,1193.52 C102.7267,1211.171 122.71,1230.537 145,1242 C192.12,1266.232 250.415,1276.244 298.645,1280.078 " fill="none" id="Chef d'agence-to-Simuler un emprunt" style="stroke:#181818;stroke-width:1.0;"/><polygon fill="#181818" points="303.876,1280.472,295.202,1275.807,298.8901,1280.0963,294.6009,1283.7844,303.876,1280.472" style="stroke:#181818;stroke-width:1.0;"/></g><!--MD5=[72b56885d7fe2f5ae3e52913859dc0ef]
link Chef d'agence to Simuler une assurance d’emprunt--><g id="link_Chef d'agence_Simuler une assurance d’emprunt"><path d="M59.2107,1193.731 C62.5483,1253.152 78.0044,1364.529 145,1424 C174.897,1450.539 214.947,1464.264 254.13,1470.936 " fill="none" id="Chef d'agence-to-Simuler une assurance d’emprunt" style="stroke:#181818;stroke-width:1.0;"/><polygon fill="#181818" points="259.401,1471.792,251.1587,1466.4009,254.4657,1470.9904,249.8761,1474.2974,259.401,1471.792" style="stroke:#181818;stroke-width:1.0;"/></g><!--MD5=[1460083ac3f4741f31189dd295a9c8ea]
link Chef d'agence to Générer les relevés mensuels en PDF--><g id="link_Chef d'agence_Générer les relevés mensuels en PDF"><path d="M62.5268,1193.529 C71.9862,1278.387 98.4146,1473.961 145,1519 C171.109,1544.2425 206.223,1558.3951 241.802,1565.9883 " fill="none" id="Chef d'agence-to-Générer les relevés mensuels en PDF" style="stroke:#181818;stroke-width:1.0;"/><polygon fill="#181818" points="247.054,1567.0615,239.0375,1561.34,242.1553,1566.0601,237.4352,1569.1779,247.054,1567.0615" style="stroke:#181818;stroke-width:1.0;"/></g><!--MD5=[61997f94d0edf477655fea32e40fec53]
link Chef d'agence to Exécuter les prélèvements automatiques--><g id="link_Chef d'agence_Exécuter les prélèvements automatiques"><path d="M69.1741,1114.485 C81.3144,1077.319 104.855,1023.029 145,993 C170.998,973.553 202.618,960.997 234.457,952.975 " fill="none" id="Chef d'agence-to-Exécuter les prélèvements automatiques" style="stroke:#181818;stroke-width:1.0;"/><polygon fill="#181818" points="239.568,951.726,229.8757,949.9772,234.711,952.9131,231.775,957.7484,239.568,951.726" style="stroke:#181818;stroke-width:1.0;"/></g><!--MD5=[50aa03f8acb92ee599ba10a18c70b28e]
link Guichetier to Débiter un compte--><g id="link_Guichetier_Débiter un compte"><path d="M58.3626,495.73 C60.4721,557.28 74.2001,674.947 145,736 C189.259,774.166 255.249,782.764 308.032,782.304 " fill="none" id="Guichetier-to-Débiter un compte" style="stroke:#181818;stroke-width:1.0;"/><polygon fill="#181818" points="313.098,782.232,304.0418,778.361,308.0985,782.3034,304.1561,786.3602,313.098,782.232" style="stroke:#181818;stroke-width:1.0;"/></g><!--MD5=[91d9da155be1af38883eff6d78dcd216]
link Guichetier to Consulter un compte--><g id="link_Guichetier_Consulter un compte"><path d="M62.6558,495.55 C72.2488,578.89 98.7302,768.421 145,811 C187.021,849.67 250.992,858.972 303.437,858.839 " fill="none" id="Guichetier-to-Consulter un compte" style="stroke:#181818;stroke-width:1.0;"/><polygon fill="#181818" points="308.475,858.797,299.4422,854.8717,303.4752,858.8384,299.5085,862.8714,308.475,858.797" style="stroke:#181818;stroke-width:1.0;"/></g><!--MD5=[2e0b443a5282df7a28c4fa4c5c5161f4]
link Guichetier to Créer un nouveau client--><g id="link_Guichetier_Créer un nouveau client"><path d="M62.8389,416.41 C72.7053,333.96 99.5562,148.01 145,106 C184.19,69.77 242.536,58.8 292.791,57.22 " fill="none" id="Guichetier-to-Créer un nouveau client" style="stroke:#181818;stroke-width:1.0;"/><polygon fill="#181818" points="297.939,57.09,288.8413,53.3175,292.9406,57.2157,289.0424,61.315,297.939,57.09" style="stroke:#181818;stroke-width:1.0;"/></g><!--MD5=[f9f619f9753b0977266d7485b11c88da]
link Guichetier to Modifier infos client--><g id="link_Guichetier_Modifier infos client"><path d="M58.6804,416.36 C61.2664,355.89 75.6837,241.4 145,182 C188.736,144.52 253.459,135.62 305.819,135.78 " fill="none" id="Guichetier-to-Modifier infos client" style="stroke:#181818;stroke-width:1.0;"/><polygon fill="#181818" points="310.846,135.82,301.8806,131.743,305.8462,135.7771,301.812,139.7427,310.846,135.82" style="stroke:#181818;stroke-width:1.0;"/></g><!--MD5=[5c4d500bb4daf715bd068c07224764fb]
link Guichetier to Créditer compte--><g id="link_Guichetier_Créditer compte"><path d="M63.8162,416.31 C72.3039,369.63 93.5746,293.52 145,254 C192.791,217.28 261.481,209.76 314.456,210.59 " fill="none" id="Guichetier-to-Créditer compte" style="stroke:#181818;stroke-width:1.0;"/><polygon fill="#181818" points="319.533,210.69,310.6184,206.5032,314.5341,210.5857,310.4515,214.5015,319.533,210.69" style="stroke:#181818;stroke-width:1.0;"/></g><!--MD5=[a5e774a1d0ff2163c754a2c83819def2]
link Guichetier to Virment de compte à compte--><g id="link_Guichetier_Virment de compte à compte"><path d="M79.0465,416.41 C93.9889,391.66 116.556,361.3 145,344 C181.288,321.93 225.706,310.13 266.875,303.98 " fill="none" id="Guichetier-to-Virment de compte à compte" style="stroke:#181818;stroke-width:1.0;"/><polygon fill="#181818" points="271.878,303.26,262.3995,300.5845,266.9291,303.9731,263.5405,308.5027,271.878,303.26" style="stroke:#181818;stroke-width:1.0;"/></g><!--MD5=[66d898512ab145c363abd26c647df608]
link Guichetier to Cloturer un compte--><g id="link_Guichetier_Cloturer un compte"><path d="M95.2661,438.38 C110.38,431.76 128.241,424.7 145,420 C197.305,405.34 257.501,395.95 305.488,390.17 " fill="none" id="Guichetier-to-Cloturer un compte" style="stroke:#181818;stroke-width:1.0;"/><polygon fill="#181818" points="310.684,389.55,301.2745,386.6412,305.719,390.1407,302.2195,394.5852,310.684,389.55" style="stroke:#181818;stroke-width:1.0;"/></g><!--MD5=[a7889307f665c0b6be60aba10f76457c]
link Guichetier to Créer un compte--><g id="link_Guichetier_Créer un compte"><path d="M95.2542,456 C145.868,456 238.539,456 307.1,456 " fill="none" id="Guichetier-to-Créer un compte" style="stroke:#181818;stroke-width:1.0;"/><polygon fill="#181818" points="312.408,456,303.408,452,307.408,456,303.408,460,312.408,456" style="stroke:#181818;stroke-width:1.0;"/></g><!--MD5=[909237958456fbefa482989ed812be70]
link Guichetier to Générer un relevé mensuel d’un compte en PDF--><g id="link_Guichetier_Générer un relevé mensuel d’un compte en PDF"><path d="M95.0302,472.81 C110.262,479.39 128.271,486.64 145,492 C179.384,503.02 217.091,512.81 252.495,521.04 " fill="none" id="Guichetier-to-Générer un relevé mensuel d’un compte en PDF" style="stroke:#181818;stroke-width:1.0;"/><polygon fill="#181818" points="257.701,522.24,249.8327,516.3163,252.8294,521.1142,248.0315,524.1109,257.701,522.24" style="stroke:#181818;stroke-width:1.0;"/></g><!--MD5=[64dae46f8b67d458a3e1bab514efcfbe]
link Guichetier to Gérer, ou faire le « CRUD » des prélèvements automatiques--><g id="link_Guichetier_Gérer, ou faire le « CRUD » des prélèvements automatiques"><path d="M71.4858,495.75 C84.6844,529.96 108.441,578.09 145,606 C164.075,620.56 186.115,631.87 209.025,640.657 " fill="none" id="Guichetier-to-Gérer, ou faire le « CRUD » des prélèvements automatiques" style="stroke:#181818;stroke-width:1.0;"/><polygon fill="#181818" points="213.927,642.493,206.9029,635.5892,209.2449,640.7385,204.0957,643.0805,213.927,642.493" style="stroke:#181818;stroke-width:1.0;"/></g><!--MD5=[63aca4169b22b210847342d462a606d7]
@startuml
skinparam actorStyle awesome
:Chef d'agence:
:Guichetier:
rectangle Système {
    (Rendre inactif un client)
    (Gérer les employés)
    (Débiter un compte)
    (Consulter un compte)
    (Créer un nouveau client)
    (Modifier infos client)
    (Créditer compte)
    (Virment de compte à compte)
    (Cloturer un compte)
    (Créer un compte)

    (Générer un relevé mensuel d’un compte en PDF)
    (Gérer, ou faire le « CRUD » des prélèvements automatiques)
    (Effectuer un Débit exceptionnel)
    (Simuler un emprunt)
    (Simuler une assurance d’emprunt)

    (fonctionnalité supplémentaire éventuelle)
    (Générer les relevés mensuels en PDF)
    (Exécuter les prélèvements automatiques)
}


(Guichetier) <|-right- (Chef d'agence)

left to right direction
:Chef d'agence: - -> (Rendre inactif un client)
:Chef d'agence: - -> (Gérer les employés)
:Chef d'agence: - -> (Effectuer un Débit exceptionnel)
:Chef d'agence: - -> (Simuler un emprunt)
:Chef d'agence: - -> (Simuler une assurance d’emprunt)

:Chef d'agence: - -> (Générer les relevés mensuels en PDF)
:Chef d'agence: - -> (Exécuter les prélèvements automatiques)


(Guichetier) - -> (Débiter un compte) 
(Guichetier) - -> (Consulter un compte) 
(Guichetier) - -> (Créer un nouveau client) 
(Guichetier) - -> (Modifier infos client) 
(Guichetier) - -> (Créditer compte) 
(Guichetier) - -> (Virment de compte à compte) 
(Guichetier) - -> (Cloturer un compte) 
(Guichetier) - -> (Créer un compte)

(Guichetier) - -> (Générer un relevé mensuel d’un compte en PDF)
(Guichetier) - -> (Gérer, ou faire le « CRUD » des prélèvements automatiques)
@enduml

PlantUML version 1.2022.4beta2(Unknown compile time)
(GPL source distribution)
Java Runtime: Java(TM) SE Runtime Environment
JVM: Java HotSpot(TM) 64-Bit Server VM
Default Encoding: UTF-8
Language: en
Country: US
--></g></svg>