<?xml version="1.0" encoding="UTF-8" standalone="no"?><svg xmlns="http://www.w3.org/2000/svg" xmlns:xlink="http://www.w3.org/1999/xlink" contentStyleType="text/css" height="1702px" preserveAspectRatio="none" style="width:641px;height:1702px;background:#FFFFFF;" version="1.1" viewBox="0 0 641 1702" width="641px" zoomAndPan="magnify"><defs/><g><!--MD5=[6ea93574f71f75ac542a4032e198fe98]
cluster Système--><g id="cluster_Système"><rect height="1689" rx="2.5" ry="2.5" style="stroke:#181818;stroke-width:1.0;fill:none;" width="482" x="153" y="7"/><text fill="#000000" font-family="sans-serif" font-size="14" font-weight="bold" lengthAdjust="spacing" textLength="69" x="359.5" y="21.9951">Système</text></g><g id="elem_Rendre inactif un client"><ellipse cx="393.7923" cy="1132.7585" fill="#F1F1F1" rx="101.7923" ry="22.7585" style="stroke:#181818;stroke-width:0.5;"/><text fill="#000000" font-family="sans-serif" font-size="14" lengthAdjust="spacing" textLength="168" x="309.7923" y="1135.6051">Rendre inactif un client</text></g><g id="elem_Gérer les employés"><ellipse cx="393.7915" cy="1211.1583" fill="#F1F1F1" rx="88.7915" ry="20.1583" style="stroke:#181818;stroke-width:0.5;"/><text fill="#000000" font-family="sans-serif" font-size="14" lengthAdjust="spacing" textLength="139" x="324.2915" y="1214.005">Gérer les employés</text></g><g id="elem_Débiter un compte"><ellipse cx="393.8518" cy="851.0704" fill="#F1F1F1" rx="88.3518" ry="20.0704" style="stroke:#181818;stroke-width:0.5;"/><text fill="#000000" font-family="sans-serif" font-size="14" lengthAdjust="spacing" textLength="138" x="324.8518" y="853.917">Débiter un compte</text></g><g id="elem_Consulter un compte"><ellipse cx="394.1163" cy="63.2233" fill="#F1F1F1" rx="94.1163" ry="21.2233" style="stroke:#181818;stroke-width:0.5;"/><text fill="#000000" font-family="sans-serif" font-size="14" lengthAdjust="spacing" textLength="151" x="318.6163" y="66.0699">Consulter un compte</text></g><g id="elem_Créer un nouveau client"><ellipse cx="394.2481" cy="141.8496" fill="#F1F1F1" rx="102.2481" ry="22.8496" style="stroke:#181818;stroke-width:0.5;"/><text fill="#000000" font-family="sans-serif" font-size="14" lengthAdjust="spacing" textLength="169" x="309.7481" y="144.6963">Créer un nouveau client</text></g><g id="elem_Modifier infos client"><ellipse cx="394.0567" cy="221.0113" fill="#F1F1F1" rx="90.5567" ry="20.5113" style="stroke:#181818;stroke-width:0.5;"/><text fill="#000000" font-family="sans-serif" font-size="14" lengthAdjust="spacing" textLength="143" x="322.5567" y="223.858">Modifier infos client</text></g><g id="elem_Créditer compte"><ellipse cx="394.0271" cy="295.1054" fill="#F1F1F1" rx="81.0271" ry="18.6054" style="stroke:#181818;stroke-width:0.5;"/><text fill="#000000" font-family="sans-serif" font-size="14" lengthAdjust="spacing" textLength="121" x="332.2415" y="298.3718">Créditer compte</text></g><g id="elem_Virment de compte à compte"><ellipse cx="394.0909" cy="376.1182" fill="#F1F1F1" rx="123.5909" ry="27.1182" style="stroke:#181818;stroke-width:0.5;"/><text fill="#000000" font-family="sans-serif" font-size="14" lengthAdjust="spacing" textLength="215" x="286.5909" y="378.9649">Virment de compte à compte</text></g><g id="elem_Cloturer un compte"><ellipse cx="394.1728" cy="458.8346" fill="#F1F1F1" rx="89.6728" ry="20.3346" style="stroke:#181818;stroke-width:0.5;"/><text fill="#000000" font-family="sans-serif" font-size="14" lengthAdjust="spacing" textLength="141" x="323.6728" y="461.6812">Cloturer un compte</text></g><g id="elem_Créer un compte"><ellipse cx="393.9455" cy="533.1891" fill="#F1F1F1" rx="81.4455" ry="18.6891" style="stroke:#181818;stroke-width:0.5;"/><text fill="#000000" font-family="sans-serif" font-size="14" lengthAdjust="spacing" textLength="122" x="331.8109" y="536.409">Créer un compte</text></g><g id="elem_Générer un relevé mensuel d’un compte en PDF"><ellipse cx="394.1285" cy="625.8257" fill="#F1F1F1" rx="184.6285" ry="39.3257" style="stroke:#181818;stroke-width:0.5;"/><text fill="#000000" font-family="sans-serif" font-size="14" lengthAdjust="spacing" textLength="342" x="223.1285" y="628.6724">Générer un relevé mensuel d’un compte en PDF</text></g><g id="elem_Gérer, ou faire le « CRUD » des prélèvements automatiques"><ellipse cx="393.7745" cy="747.8549" fill="#F1F1F1" rx="224.7745" ry="47.3549" style="stroke:#181818;stroke-width:0.5;"/><text fill="#000000" font-family="sans-serif" font-size="14" lengthAdjust="spacing" textLength="424" x="181.7745" y="750.7016">Gérer, ou faire le « CRUD » des prélèvements automatiques</text></g><g id="elem_Effectuer un Débit exceptionnel"><ellipse cx="394.0975" cy="1294.8195" fill="#F1F1F1" rx="132.0975" ry="28.8195" style="stroke:#181818;stroke-width:0.5;"/><text fill="#000000" font-family="sans-serif" font-size="14" lengthAdjust="spacing" textLength="233" x="277.5975" y="1297.6662">Effectuer un Débit exceptionnel</text></g><g id="elem_Simuler un emprunt"><ellipse cx="394.1144" cy="1564.9229" fill="#F1F1F1" rx="90.1144" ry="20.4229" style="stroke:#181818;stroke-width:0.5;"/><text fill="#000000" font-family="sans-serif" font-size="14" lengthAdjust="spacing" textLength="142" x="323.1144" y="1567.7696">Simuler un emprunt</text></g><g id="elem_Simuler une assurance d’emprunt"><ellipse cx="393.9721" cy="1649.7944" fill="#F1F1F1" rx="134.4721" ry="29.2944" style="stroke:#181818;stroke-width:0.5;"/><text fill="#000000" font-family="sans-serif" font-size="14" lengthAdjust="spacing" textLength="238" x="274.9721" y="1652.6411">Simuler une assurance d’emprunt</text></g><g id="elem_fonctionnalité supplémentaire 1"><ellipse cx="394.0975" cy="1387.8195" fill="#F1F1F1" rx="132.0975" ry="28.8195" style="stroke:#181818;stroke-width:0.5;"/><text fill="#000000" font-family="sans-serif" font-size="14" lengthAdjust="spacing" textLength="233" x="277.5975" y="1390.6662">fonctionnalité supplémentaire 1</text></g><g id="elem_fonctionnalité supplémentaire 2"><ellipse cx="394.1232" cy="1481.2246" fill="#F1F1F1" rx="131.6232" ry="28.7246" style="stroke:#181818;stroke-width:0.5;"/><text fill="#000000" font-family="sans-serif" font-size="14" lengthAdjust="spacing" textLength="232" x="278.1232" y="1484.0713">fonctionnalité supplémentaire 2</text></g><g id="elem_Générer les relevés mensuels en PDF"><ellipse cx="393.8886" cy="937.7777" fill="#F1F1F1" rx="146.8886" ry="31.7777" style="stroke:#181818;stroke-width:0.5;"/><text fill="#000000" font-family="sans-serif" font-size="14" lengthAdjust="spacing" textLength="264" x="261.8886" y="940.6244">Générer les relevés mensuels en PDF</text></g><g id="elem_Exécuter les prélèvements automatiques"><ellipse cx="393.8149" cy="1039.763" fill="#F1F1F1" rx="161.8149" ry="34.763" style="stroke:#181818;stroke-width:0.5;"/><text fill="#000000" font-family="sans-serif" font-size="14" lengthAdjust="spacing" textLength="295" x="246.3149" y="1042.6097">Exécuter les prélèvements automatiques</text></g><!--MD5=[634022ffb0ee2fe3da972e9a474208da]
entity Chef d'agence--><g id="elem_Chef d'agence"><ellipse cx="57.5" cy="1150" fill="#F1F1F1" rx="16" ry="16" style="stroke:#181818;stroke-width:1.5;"/><path d="M57.5,1170 C61.5,1170 64.5,1170 68.5,1166 C76.5,1166 84.5,1174 84.5,1182 L84.5,1186 C84.5,1190 80.5,1194 76.5,1194 L38.5,1194 C34.5,1194 30.5,1190 30.5,1186 L30.5,1182 C30.5,1174 38.5,1166 46.5,1166 C50.5,1170 53.5,1170 57.5,1170 " fill="#F1F1F1" style="stroke:#181818;stroke-width:1.5;"/><text fill="#000000" font-family="sans-serif" font-size="14" lengthAdjust="spacing" textLength="103" x="6" y="1208.4951">Chef d'agence</text></g><!--MD5=[34413ead84916979ab18eea1b2c854c1]
entity Guichetier--><g id="elem_Guichetier"><ellipse cx="57.5" cy="437" fill="#F1F1F1" rx="16" ry="16" style="stroke:#181818;stroke-width:1.5;"/><path d="M57.5,457 C61.5,457 64.5,457 68.5,453 C76.5,453 84.5,461 84.5,469 L84.5,473 C84.5,477 80.5,481 76.5,481 L38.5,481 C34.5,481 30.5,477 30.5,473 L30.5,469 C30.5,461 38.5,453 46.5,453 C50.5,457 53.5,457 57.5,457 " fill="#F1F1F1" style="stroke:#181818;stroke-width:1.5;"/><text fill="#000000" font-family="sans-serif" font-size="14" lengthAdjust="spacing" textLength="75" x="20" y="495.4951">Guichetier</text></g><!--MD5=[569a56ac7f04f53b13f50c0e874c4f09]
reverse link Guichetier to Chef d'agence--><g id="link_Guichetier_Chef d'agence"><path d="M57.5,518.89 C57.5,723.362 57.5,927.837 57.5,1132.312 " fill="none" id="Guichetier-backto-Chef d'agence" style="stroke:#181818;stroke-width:1.0;"/><polygon fill="none" points="50.5001,518.78,57.5,498.78,64.5001,518.78,50.5001,518.78" style="stroke:#181818;stroke-width:1.0;"/></g><!--MD5=[fa2e395e32982047f577df944f1ae0e3]
link Chef d'agence to Rendre inactif un client--><g id="link_Chef d'agence_Rendre inactif un client"><path d="M109.303,1166.077 C159.167,1160.263 236.445,1151.253 297.762,1144.104 " fill="none" id="Chef d'agence-to-Rendre inactif un client" style="stroke:#181818;stroke-width:1.0;"/><polygon fill="#181818" points="302.894,1143.506,293.4908,1140.5768,297.9277,1144.0859,294.4187,1148.5228,302.894,1143.506" style="stroke:#181818;stroke-width:1.0;"/></g><!--MD5=[c117574e404b72ccce671cda296f7818]
link Chef d'agence to Gérer les employés--><g id="link_Chef d'agence_Gérer les employés"><path d="M109.303,1177.923 C162.367,1184.11 246.476,1193.916 309.357,1201.248 " fill="none" id="Chef d'agence-to-Gérer les employés" style="stroke:#181818;stroke-width:1.0;"/><polygon fill="#181818" points="314.609,1201.86,306.1338,1196.8429,309.6428,1201.2799,305.2057,1204.7889,314.609,1201.86" style="stroke:#181818;stroke-width:1.0;"/></g><!--MD5=[40710a5d42454481e3338f5e9d807a10]
link Chef d'agence to Effectuer un Débit exceptionnel--><g id="link_Chef d'agence_Effectuer un Débit exceptionnel"><path d="M94.8535,1211.709 C109.222,1225.174 126.676,1239.056 145,1248 C181.841,1265.982 224.874,1277.098 264.654,1283.965 " fill="none" id="Chef d'agence-to-Effectuer un Débit exceptionnel" style="stroke:#181818;stroke-width:1.0;"/><polygon fill="#181818" points="269.991,1284.864,261.7815,1279.423,265.0606,1284.0325,260.4511,1287.3116,269.991,1284.864" style="stroke:#181818;stroke-width:1.0;"/></g><!--MD5=[75c2df6dd4eaa4a435a7add9e37852fd]
link Chef d'agence to Simuler un emprunt--><g id="link_Chef d'agence_Simuler un emprunt"><path d="M62.643,1211.56 C72.211,1294.931 98.6464,1484.512 145,1527 C188.316,1566.704 254.844,1575.115 308.094,1574.189 " fill="none" id="Chef d'agence-to-Simuler un emprunt" style="stroke:#181818;stroke-width:1.0;"/><polygon fill="#181818" points="313.205,1574.071,304.1148,1570.2804,308.2063,1574.1867,304.3,1578.2782,313.205,1574.071" style="stroke:#181818;stroke-width:1.0;"/></g><!--MD5=[72b56885d7fe2f5ae3e52913859dc0ef]
link Chef d'agence to Simuler une assurance d’emprunt--><g id="link_Chef d'agence_Simuler une assurance d’emprunt"><path d="M60.9317,1211.701 C67.6438,1307.661 89.7276,1548.32 145,1603 C173.92,1631.6103 214.477,1645.6514 254.429,1651.9273 " fill="none" id="Chef d'agence-to-Simuler une assurance d’emprunt" style="stroke:#181818;stroke-width:1.0;"/><polygon fill="#181818" points="259.805,1652.7263,251.4915,1647.4456,254.8594,1651.9906,250.3144,1655.3585,259.805,1652.7263" style="stroke:#181818;stroke-width:1.0;"/></g><!--MD5=[1460083ac3f4741f31189dd295a9c8ea]
link Chef d'agence to Générer les relevés mensuels en PDF--><g id="link_Chef d'agence_Générer les relevés mensuels en PDF"><path d="M66.0581,1132.161 C76.3183,1089.492 98.9371,1023.064 145,987 C173.161,964.952 208.523,951.976 243.649,944.53 " fill="none" id="Chef d'agence-to-Générer les relevés mensuels en PDF" style="stroke:#181818;stroke-width:1.0;"/><polygon fill="#181818" points="248.829,943.471,239.2102,941.3547,243.9303,944.4725,240.8125,949.1926,248.829,943.471" style="stroke:#181818;stroke-width:1.0;"/></g><!--MD5=[61997f94d0edf477655fea32e40fec53]
link Chef d'agence to Exécuter les prélèvements automatiques--><g id="link_Chef d'agence_Exécuter les prélèvements automatiques"><path d="M92.5326,1132.448 C107.249,1117.663 125.551,1102.04 145,1092 C175.831,1076.085 211.205,1065.04 245.396,1057.376 " fill="none" id="Chef d'agence-to-Exécuter les prélèvements automatiques" style="stroke:#181818;stroke-width:1.0;"/><polygon fill="#181818" points="250.431,1056.269,240.7824,1054.293,245.5474,1057.3417,242.4987,1062.1067,250.431,1056.269" style="stroke:#181818;stroke-width:1.0;"/></g><!--MD5=[50aa03f8acb92ee599ba10a18c70b28e]
link Guichetier to Débiter un compte--><g id="link_Guichetier_Débiter un compte"><path d="M62.6961,498.76 C72.3273,582.06 98.8142,770.693 145,813 C188.795,853.117 256.292,861.28 309.819,860.147 " fill="none" id="Guichetier-to-Débiter un compte" style="stroke:#181818;stroke-width:1.0;"/><polygon fill="#181818" points="314.954,860.009,305.8498,856.2522,309.9558,860.1433,306.0647,864.2493,314.954,860.009" style="stroke:#181818;stroke-width:1.0;"/></g><!--MD5=[91d9da155be1af38883eff6d78dcd216]
link Guichetier to Consulter un compte--><g id="link_Guichetier_Consulter un compte"><path d="M62.5571,419.43 C71.9966,335.52 98.259,143.93 145,101 C187.267,62.18 251.715,53.25 304.318,53.73 " fill="none" id="Guichetier-to-Consulter un compte" style="stroke:#181818;stroke-width:1.0;"/><polygon fill="#181818" points="309.37,53.81,300.4304,49.6767,304.3706,53.7357,300.3116,57.6759,309.37,53.81" style="stroke:#181818;stroke-width:1.0;"/></g><!--MD5=[2e0b443a5282df7a28c4fa4c5c5161f4]
link Guichetier to Créer un nouveau client--><g id="link_Guichetier_Créer un nouveau client"><path d="M58.6698,419.18 C61.2415,358.41 75.6401,243.28 145,183 C184.647,148.54 241.837,137.42 291.308,135.31 " fill="none" id="Guichetier-to-Créer un nouveau client" style="stroke:#181818;stroke-width:1.0;"/><polygon fill="#181818" points="296.377,135.13,287.2358,131.4642,291.3804,135.3142,287.5304,139.4588,296.377,135.13" style="stroke:#181818;stroke-width:1.0;"/></g><!--MD5=[f9f619f9753b0977266d7485b11c88da]
link Guichetier to Modifier infos client--><g id="link_Guichetier_Modifier infos client"><path d="M64.0669,419.35 C72.7754,373.15 94.2381,298.18 145,259 C189.422,224.71 251.938,215.31 303.088,214.43 " fill="none" id="Guichetier-to-Modifier infos client" style="stroke:#181818;stroke-width:1.0;"/><polygon fill="#181818" points="308.316,214.37,299.2698,210.4757,303.3163,214.4286,299.3635,218.4751,308.316,214.37" style="stroke:#181818;stroke-width:1.0;"/></g><!--MD5=[5c4d500bb4daf715bd068c07224764fb]
link Guichetier to Créditer compte--><g id="link_Guichetier_Créditer compte"><path d="M74.6043,419.33 C88.6818,389.99 112.057,351.67 145,331 C193.991,300.26 258.975,291.74 310.132,290.65 " fill="none" id="Guichetier-to-Créditer compte" style="stroke:#181818;stroke-width:1.0;"/><polygon fill="#181818" points="315.353,290.56,306.288,286.7097,310.3537,290.6428,306.4205,294.7086,315.353,290.56" style="stroke:#181818;stroke-width:1.0;"/></g><!--MD5=[a5e774a1d0ff2163c754a2c83819def2]
link Guichetier to Virment de compte à compte--><g id="link_Guichetier_Virment de compte à compte"><path d="M95.241,440.58 C110.351,433.61 128.216,426.13 145,421 C189.021,407.54 238.74,397.54 282.041,390.44 " fill="none" id="Guichetier-to-Virment de compte à compte" style="stroke:#181818;stroke-width:1.0;"/><polygon fill="#181818" points="287.018,389.63,277.4938,387.122,282.0825,390.4302,278.7742,395.0189,287.018,389.63" style="stroke:#181818;stroke-width:1.0;"/></g><!--MD5=[66d898512ab145c363abd26c647df608]
link Guichetier to Cloturer un compte--><g id="link_Guichetier_Cloturer un compte"><path d="M95.2542,459 C143.883,459 231.336,459 298.927,459 " fill="none" id="Guichetier-to-Cloturer un compte" style="stroke:#181818;stroke-width:1.0;"/><polygon fill="#181818" points="304.168,459,295.168,455,299.168,459,295.168,463,304.168,459" style="stroke:#181818;stroke-width:1.0;"/></g><!--MD5=[a7889307f665c0b6be60aba10f76457c]
link Guichetier to Créer un compte--><g id="link_Guichetier_Créer un compte"><path d="M95.1515,477.72 C110.249,484.73 128.128,492.17 145,497 C199.385,512.58 262.507,521.62 311.459,526.75 " fill="none" id="Guichetier-to-Créer un compte" style="stroke:#181818;stroke-width:1.0;"/><polygon fill="#181818" points="316.451,527.26,307.909,522.3576,311.4774,526.7469,307.088,530.3153,316.451,527.26" style="stroke:#181818;stroke-width:1.0;"/></g><!--MD5=[909237958456fbefa482989ed812be70]
link Guichetier to Générer un relevé mensuel d’un compte en PDF--><g id="link_Guichetier_Générer un relevé mensuel d’un compte en PDF"><path d="M80.1492,498.53 C95.2638,522.46 117.61,551.63 145,569 C170.217,584.99 199.405,596.51 228.711,604.81 " fill="none" id="Guichetier-to-Générer un relevé mensuel d’un compte en PDF" style="stroke:#181818;stroke-width:1.0;"/><polygon fill="#181818" points="233.797,606.22,226.1905,599.9637,228.9783,604.8859,224.056,607.6736,233.797,606.22" style="stroke:#181818;stroke-width:1.0;"/></g><!--MD5=[64dae46f8b67d458a3e1bab514efcfbe]
link Guichetier to Gérer, ou faire le « CRUD » des prélèvements automatiques--><g id="link_Guichetier_Gérer, ou faire le « CRUD » des prélèvements automatiques"><path d="M62.8573,498.78 C70.5085,549.05 91.0693,634.8 145,683 C162.047,698.23 182.238,709.97 203.624,719.003 " fill="none" id="Guichetier-to-Gérer, ou faire le « CRUD » des prélèvements automatiques" style="stroke:#181818;stroke-width:1.0;"/><polygon fill="#181818" points="208.496,721.006,201.6934,713.8839,203.8717,719.1046,198.651,721.2829,208.496,721.006" style="stroke:#181818;stroke-width:1.0;"/></g><!--MD5=[02c6f10b465b4d2932c75cfa7d34d564]
@startuml
skinparam actorStyle awesome
:Chef d'agence:
:Guichetier:
rectangle Système {
    (Rendre inactif un client)
    (Gérer les employés)
    (Débiter un compte)
    (Consulter un compte)
    (Créer un nouveau client)
    (Modifier infos client)
    (Créditer compte)
    (Virment de compte à compte)
    (Cloturer un compte)
    (Créer un compte)

    (Générer un relevé mensuel d’un compte en PDF)
    (Gérer, ou faire le « CRUD » des prélèvements automatiques)
    (Effectuer un Débit exceptionnel)
    (Simuler un emprunt)
    (Simuler une assurance d’emprunt)

    (fonctionnalité supplémentaire 1)
    (fonctionnalité supplémentaire 2)
    (Générer les relevés mensuels en PDF)
    (Exécuter les prélèvements automatiques)
}


(Guichetier) <|-right- (Chef d'agence)

left to right direction
:Chef d'agence: - -> (Rendre inactif un client)
:Chef d'agence: - -> (Gérer les employés)
:Chef d'agence: - -> (Effectuer un Débit exceptionnel)
:Chef d'agence: - -> (Simuler un emprunt)
:Chef d'agence: - -> (Simuler une assurance d’emprunt)

:Chef d'agence: - -> (Générer les relevés mensuels en PDF)
:Chef d'agence: - -> (Exécuter les prélèvements automatiques)


(Guichetier) - -> (Débiter un compte) 
(Guichetier) - -> (Consulter un compte) 
(Guichetier) - -> (Créer un nouveau client) 
(Guichetier) - -> (Modifier infos client) 
(Guichetier) - -> (Créditer compte) 
(Guichetier) - -> (Virment de compte à compte) 
(Guichetier) - -> (Cloturer un compte) 
(Guichetier) - -> (Créer un compte)

(Guichetier) - -> (Générer un relevé mensuel d’un compte en PDF)
(Guichetier) - -> (Gérer, ou faire le « CRUD » des prélèvements automatiques)
@enduml

PlantUML version 1.2022.4beta2(Unknown compile time)
(GPL source distribution)
Java Runtime: Java(TM) SE Runtime Environment
JVM: Java HotSpot(TM) 64-Bit Server VM
Default Encoding: UTF-8
Language: en
Country: US
--></g></svg>