<?xml version="1.0" encoding="UTF-8" standalone="no"?><svg xmlns="http://www.w3.org/2000/svg" xmlns:xlink="http://www.w3.org/1999/xlink" contentStyleType="text/css" height="805px" preserveAspectRatio="none" style="width:438px;height:805px;background:#FFFFFF;" version="1.1" viewBox="0 0 438 805" width="438px" zoomAndPan="magnify"><defs/><g><!--MD5=[6ea93574f71f75ac542a4032e198fe98]
cluster Système--><g id="cluster_Système"><rect height="792" rx="2.5" ry="2.5" style="stroke:#181818;stroke-width:1.0;fill:none;" width="279" x="153" y="7"/><text fill="#000000" font-family="sans-serif" font-size="14" font-weight="bold" lengthAdjust="spacing" textLength="69" x="258" y="21.9951">Système</text></g><g id="elem_Rendre inactif un client"><ellipse cx="292.2923" cy="684.7585" fill="#F1F1F1" rx="101.7923" ry="22.7585" style="stroke:#181818;stroke-width:0.5;"/><text fill="#000000" font-family="sans-serif" font-size="14" lengthAdjust="spacing" textLength="168" x="208.2923" y="687.6051">Rendre inactif un client</text></g><g id="elem_Gérer les employés"><ellipse cx="292.2915" cy="763.1583" fill="#F1F1F1" rx="88.7915" ry="20.1583" style="stroke:#181818;stroke-width:0.5;"/><text fill="#000000" font-family="sans-serif" font-size="14" lengthAdjust="spacing" textLength="139" x="222.7915" y="766.005">Gérer les employés</text></g><g id="elem_Débiter un compte"><ellipse cx="292.3518" cy="211.0704" fill="#F1F1F1" rx="88.3518" ry="20.0704" style="stroke:#181818;stroke-width:0.5;"/><text fill="#000000" font-family="sans-serif" font-size="14" lengthAdjust="spacing" textLength="138" x="223.3518" y="213.917">Débiter un compte</text></g><g id="elem_Consulter un compte"><ellipse cx="292.6163" cy="287.2233" fill="#F1F1F1" rx="94.1163" ry="21.2233" style="stroke:#181818;stroke-width:0.5;"/><text fill="#000000" font-family="sans-serif" font-size="14" lengthAdjust="spacing" textLength="151" x="217.1163" y="290.0699">Consulter un compte</text></g><g id="elem_Créer un nouveau client"><ellipse cx="292.7481" cy="365.8496" fill="#F1F1F1" rx="102.2481" ry="22.8496" style="stroke:#181818;stroke-width:0.5;"/><text fill="#000000" font-family="sans-serif" font-size="14" lengthAdjust="spacing" textLength="169" x="208.2481" y="368.6963">Créer un nouveau client</text></g><g id="elem_Modifier infos client"><ellipse cx="292.5567" cy="445.0113" fill="#F1F1F1" rx="90.5567" ry="20.5113" style="stroke:#181818;stroke-width:0.5;"/><text fill="#000000" font-family="sans-serif" font-size="14" lengthAdjust="spacing" textLength="143" x="221.0567" y="447.858">Modifier infos client</text></g><g id="elem_Créditer compte"><ellipse cx="292.5271" cy="519.1054" fill="#F1F1F1" rx="81.0271" ry="18.6054" style="stroke:#181818;stroke-width:0.5;"/><text fill="#000000" font-family="sans-serif" font-size="14" lengthAdjust="spacing" textLength="121" x="230.7415" y="522.3718">Créditer compte</text></g><g id="elem_Virment de compte à compte"><ellipse cx="292.5909" cy="600.1182" fill="#F1F1F1" rx="123.5909" ry="27.1182" style="stroke:#181818;stroke-width:0.5;"/><text fill="#000000" font-family="sans-serif" font-size="14" lengthAdjust="spacing" textLength="215" x="185.0909" y="602.9649">Virment de compte à compte</text></g><g id="elem_Cloturer un compte"><ellipse cx="292.6728" cy="62.8346" fill="#F1F1F1" rx="89.6728" ry="20.3346" style="stroke:#181818;stroke-width:0.5;"/><text fill="#000000" font-family="sans-serif" font-size="14" lengthAdjust="spacing" textLength="141" x="222.1728" y="65.6812">Cloturer un compte</text></g><g id="elem_Créer un compte"><ellipse cx="292.4455" cy="137.1891" fill="#F1F1F1" rx="81.4455" ry="18.6891" style="stroke:#181818;stroke-width:0.5;"/><text fill="#000000" font-family="sans-serif" font-size="14" lengthAdjust="spacing" textLength="122" x="230.3109" y="140.409">Créer un compte</text></g><!--MD5=[634022ffb0ee2fe3da972e9a474208da]
entity Chef d'agence--><g id="elem_Chef d'agence"><ellipse cx="57.5" cy="663" fill="#F1F1F1" rx="16" ry="16" style="stroke:#181818;stroke-width:1.5;"/><path d="M57.5,683 C61.5,683 64.5,683 68.5,679 C76.5,679 84.5,687 84.5,695 L84.5,699 C84.5,703 80.5,707 76.5,707 L38.5,707 C34.5,707 30.5,703 30.5,699 L30.5,695 C30.5,687 38.5,679 46.5,679 C50.5,683 53.5,683 57.5,683 " fill="#F1F1F1" style="stroke:#181818;stroke-width:1.5;"/><text fill="#000000" font-family="sans-serif" font-size="14" lengthAdjust="spacing" textLength="103" x="6" y="721.4951">Chef d'agence</text></g><!--MD5=[34413ead84916979ab18eea1b2c854c1]
entity Guichetier--><g id="elem_Guichetier"><ellipse cx="57.5" cy="344" fill="#F1F1F1" rx="16" ry="16" style="stroke:#181818;stroke-width:1.5;"/><path d="M57.5,364 C61.5,364 64.5,364 68.5,360 C76.5,360 84.5,368 84.5,376 L84.5,380 C84.5,384 80.5,388 76.5,388 L38.5,388 C34.5,388 30.5,384 30.5,380 L30.5,376 C30.5,368 38.5,360 46.5,360 C50.5,364 53.5,364 57.5,364 " fill="#F1F1F1" style="stroke:#181818;stroke-width:1.5;"/><text fill="#000000" font-family="sans-serif" font-size="14" lengthAdjust="spacing" textLength="75" x="20" y="402.4951">Guichetier</text></g><!--MD5=[569a56ac7f04f53b13f50c0e874c4f09]
reverse link Guichetier to Chef d'agence--><g id="link_Guichetier_Chef d'agence"><path d="M57.5,425.714 C57.5,498.955 57.5,572.196 57.5,645.437 " fill="none" id="Guichetier-backto-Chef d'agence" style="stroke:#181818;stroke-width:1.0;"/><polygon fill="none" points="50.5001,425.569,57.5,405.569,64.5001,425.569,50.5001,425.569" style="stroke:#181818;stroke-width:1.0;"/></g><!--MD5=[fa2e395e32982047f577df944f1ae0e3]
link Chef d'agence to Rendre inactif un client--><g id="link_Chef d'agence_Rendre inactif un client"><path d="M109.058,685 C131.392,685 158.549,685 185.011,685 " fill="none" id="Chef d'agence-to-Rendre inactif un client" style="stroke:#181818;stroke-width:1.0;"/><polygon fill="#181818" points="190.293,685,181.293,681,185.293,685,181.293,689,190.293,685" style="stroke:#181818;stroke-width:1.0;"/></g><!--MD5=[c117574e404b72ccce671cda296f7818]
link Chef d'agence to Gérer les employés--><g id="link_Chef d'agence_Gérer les employés"><path d="M109.027,710.97 C120.662,716.3795 133.114,721.7284 145,726 C169.533,734.8165 197.094,742.3635 221.637,748.2982 " fill="none" id="Chef d'agence-to-Gérer les employés" style="stroke:#181818;stroke-width:1.0;"/><polygon fill="#181818" points="226.503,749.4635,218.6835,743.4756,221.6408,748.2979,216.8185,751.2551,226.503,749.4635" style="stroke:#181818;stroke-width:1.0;"/></g><!--MD5=[50aa03f8acb92ee599ba10a18c70b28e]
link Guichetier to Débiter un compte--><g id="link_Guichetier_Débiter un compte"><path d="M78.1616,326.383 C93.0632,300.343 115.928,267.584 145,248 C163.912,235.26 186.872,226.906 208.95,221.428 " fill="none" id="Guichetier-to-Débiter un compte" style="stroke:#181818;stroke-width:1.0;"/><polygon fill="#181818" points="213.942,220.234,204.2585,218.4368,209.0791,221.3969,206.1191,226.2175,213.942,220.234" style="stroke:#181818;stroke-width:1.0;"/></g><!--MD5=[91d9da155be1af38883eff6d78dcd216]
link Guichetier to Consulter un compte--><g id="link_Guichetier_Consulter un compte"><path d="M95.3109,346.667 C110.431,339.226 128.285,331.068 145,325 C168.75,316.379 195.329,308.872 219.259,302.86 " fill="none" id="Guichetier-to-Consulter un compte" style="stroke:#181818;stroke-width:1.0;"/><polygon fill="#181818" points="224.324,301.6,214.6246,299.8908,219.4719,302.807,216.5557,307.6542,224.324,301.6" style="stroke:#181818;stroke-width:1.0;"/></g><!--MD5=[2e0b443a5282df7a28c4fa4c5c5161f4]
link Guichetier to Créer un nouveau client--><g id="link_Guichetier_Créer un nouveau client"><path d="M95.1626,366 C119.553,366 152.939,366 185.264,366 " fill="none" id="Guichetier-to-Créer un nouveau client" style="stroke:#181818;stroke-width:1.0;"/><polygon fill="#181818" points="190.441,366,181.441,362,185.441,366,181.441,370,190.441,366" style="stroke:#181818;stroke-width:1.0;"/></g><!--MD5=[f9f619f9753b0977266d7485b11c88da]
link Guichetier to Modifier infos client--><g id="link_Guichetier_Modifier infos client"><path d="M95.3766,384.765 C110.507,392.01 128.35,399.985 145,406 C169.948,415.012 197.957,422.973 222.752,429.313 " fill="none" id="Guichetier-to-Modifier infos client" style="stroke:#181818;stroke-width:1.0;"/><polygon fill="#181818" points="227.666,430.56,219.9263,424.4692,222.8196,429.3302,217.9586,432.2235,227.666,430.56" style="stroke:#181818;stroke-width:1.0;"/></g><!--MD5=[5c4d500bb4daf715bd068c07224764fb]
link Guichetier to Créditer compte--><g id="link_Guichetier_Créditer compte"><path d="M78.3612,405.623 C93.2827,431.422 116.091,463.746 145,483 C165.249,496.487 190.092,504.926 213.53,510.205 " fill="none" id="Guichetier-to-Créditer compte" style="stroke:#181818;stroke-width:1.0;"/><polygon fill="#181818" points="218.507,511.284,210.5594,505.4672,213.6206,510.2242,208.8636,513.2854,218.507,511.284" style="stroke:#181818;stroke-width:1.0;"/></g><!--MD5=[a5e774a1d0ff2163c754a2c83819def2]
link Guichetier to Virment de compte à compte--><g id="link_Guichetier_Virment de compte à compte"><path d="M66.5477,405.787 C77.2364,448.58 100.2285,515.748 145,555 C158.167,566.544 174.246,575.126 190.87,581.507 " fill="none" id="Guichetier-to-Virment de compte à compte" style="stroke:#181818;stroke-width:1.0;"/><polygon fill="#181818" points="195.571,583.249,188.522,576.3706,190.8826,581.5114,185.7419,583.872,195.571,583.249" style="stroke:#181818;stroke-width:1.0;"/></g><!--MD5=[66d898512ab145c363abd26c647df608]
link Guichetier to Cloturer un compte--><g id="link_Guichetier_Cloturer un compte"><path d="M60.0258,326.06 C64.4569,268.033 81.3546,160.834 145,101 C160.862,86.088 181.804,76.848 202.874,71.17 " fill="none" id="Guichetier-to-Cloturer un compte" style="stroke:#181818;stroke-width:1.0;"/><polygon fill="#181818" points="207.942,69.872,198.2311,68.2294,203.0983,71.1122,200.2154,75.9794,207.942,69.872" style="stroke:#181818;stroke-width:1.0;"/></g><!--MD5=[a7889307f665c0b6be60aba10f76457c]
link Guichetier to Créer un compte--><g id="link_Guichetier_Créer un compte"><path d="M65.521,326.481 C75.4484,282.442 97.9113,212.278 145,173 C163.214,157.808 186.873,148.859 209.847,143.637 " fill="none" id="Guichetier-to-Créer un compte" style="stroke:#181818;stroke-width:1.0;"/><polygon fill="#181818" points="214.737,142.579,205.0941,140.5755,209.8504,143.6378,206.7881,148.3941,214.737,142.579" style="stroke:#181818;stroke-width:1.0;"/></g><!--MD5=[1e47a0ff1818fb7f19822da5df01a3bf]
@startuml
skinparam actorStyle awesome
:Chef d'agence:
:Guichetier:
rectangle Système {
    (Rendre inactif un client)
    (Gérer les employés)
    (Débiter un compte)
    (Consulter un compte)
    (Créer un nouveau client)
    (Modifier infos client)
    (Créditer compte)
    (Virment de compte à compte)
    (Cloturer un compte)
    (Créer un compte)
}


(Guichetier) <|-right- (Chef d'agence)

left to right direction
:Chef d'agence: - -> (Rendre inactif un client)
:Chef d'agence: - -> (Gérer les employés)
(Guichetier) - -> (Débiter un compte) 
(Guichetier) - -> (Consulter un compte) 
(Guichetier) - -> (Créer un nouveau client) 
(Guichetier) - -> (Modifier infos client) 
(Guichetier) - -> (Créditer compte) 
(Guichetier) - -> (Virment de compte à compte) 
(Guichetier) - -> (Cloturer un compte) 
(Guichetier) - -> (Créer un compte)
@enduml

PlantUML version 1.2022.3(Tue Mar 29 16:10:57 UTC 2022)
(GPL source distribution)
Java Runtime: Java(TM) SE Runtime Environment
JVM: Java HotSpot(TM) 64-Bit Server VM
Default Encoding: UTF-8
Language: en
Country: US
--></g></svg>