<?xml version="1.0" encoding="UTF-8" standalone="no"?><svg xmlns="http://www.w3.org/2000/svg" xmlns:xlink="http://www.w3.org/1999/xlink" contentScriptType="application/ecmascript" contentStyleType="text/css" height="312px" preserveAspectRatio="none" style="width:948px;height:312px;background:#FFFFFF;" version="1.1" viewBox="0 0 948 312" width="948px" zoomAndPan="magnify"><defs><filter height="300%" id="f1r7kn21nhf7fq" width="300%" x="-1" y="-1"><feGaussianBlur result="blurOut" stdDeviation="2.0"/><feColorMatrix in="blurOut" result="blurOut2" type="matrix" values="0 0 0 0 0 0 0 0 0 0 0 0 0 0 0 0 0 0 .4 0"/><feOffset dx="4.0" dy="4.0" in="blurOut2" result="blurOut3"/><feBlend in="SourceGraphic" in2="blurOut3" mode="normal"/></filter></defs><g><line style="stroke:#A80036;stroke-width:1.0;stroke-dasharray:5.0,5.0;" x1="121" x2="121" y1="41.6094" y2="268.3672"/><line style="stroke:#A80036;stroke-width:1.0;stroke-dasharray:5.0,5.0;" x1="332" x2="332" y1="41.6094" y2="268.3672"/><line style="stroke:#A80036;stroke-width:1.0;stroke-dasharray:5.0,5.0;" x1="503.5" x2="503.5" y1="41.6094" y2="268.3672"/><line style="stroke:#A80036;stroke-width:1.0;stroke-dasharray:5.0,5.0;" x1="695.5" x2="695.5" y1="41.6094" y2="268.3672"/><line style="stroke:#A80036;stroke-width:1.0;stroke-dasharray:5.0,5.0;" x1="875.5" x2="875.5" y1="41.6094" y2="268.3672"/><rect fill="#FEFECE" filter="url(#f1r7kn21nhf7fq)" height="31.6094" style="stroke:#A80036;stroke-width:1.5;" width="228" x="5" y="5"/><text fill="#000000" font-family="sans-serif" font-size="14" lengthAdjust="spacing" textLength="214" x="12" y="26.5332">OperationsManagementController</text><rect fill="#FEFECE" filter="url(#f1r7kn21nhf7fq)" height="31.6094" style="stroke:#A80036;stroke-width:1.5;" width="228" x="5" y="267.3672"/><text fill="#000000" font-family="sans-serif" font-size="14" lengthAdjust="spacing" textLength="214" x="12" y="288.9004">OperationsManagementController</text><rect fill="#FEFECE" filter="url(#f1r7kn21nhf7fq)" height="31.6094" style="stroke:#A80036;stroke-width:1.5;" width="166" x="247" y="5"/><text fill="#000000" font-family="sans-serif" font-size="14" lengthAdjust="spacing" textLength="152" x="254" y="26.5332">OperationsManagement</text><rect fill="#FEFECE" filter="url(#f1r7kn21nhf7fq)" height="31.6094" style="stroke:#A80036;stroke-width:1.5;" width="166" x="247" y="267.3672"/><text fill="#000000" font-family="sans-serif" font-size="14" lengthAdjust="spacing" textLength="152" x="254" y="288.9004">OperationsManagement</text><rect fill="#FEFECE" filter="url(#f1r7kn21nhf7fq)" height="31.6094" style="stroke:#A80036;stroke-width:1.5;" width="147" x="428.5" y="5"/><text fill="#000000" font-family="sans-serif" font-size="14" lengthAdjust="spacing" textLength="133" x="435.5" y="26.5332">OperationEditorPane</text><rect fill="#FEFECE" filter="url(#f1r7kn21nhf7fq)" height="31.6094" style="stroke:#A80036;stroke-width:1.5;" width="147" x="428.5" y="267.3672"/><text fill="#000000" font-family="sans-serif" font-size="14" lengthAdjust="spacing" textLength="133" x="435.5" y="288.9004">OperationEditorPane</text><rect fill="#FEFECE" filter="url(#f1r7kn21nhf7fq)" height="31.6094" style="stroke:#A80036;stroke-width:1.5;" width="209" x="589.5" y="5"/><text fill="#000000" font-family="sans-serif" font-size="14" lengthAdjust="spacing" textLength="195" x="596.5" y="26.5332">OperationEditorPaneController</text><rect fill="#FEFECE" filter="url(#f1r7kn21nhf7fq)" height="31.6094" style="stroke:#A80036;stroke-width:1.5;" width="209" x="589.5" y="267.3672"/><text fill="#000000" font-family="sans-serif" font-size="14" lengthAdjust="spacing" textLength="195" x="596.5" y="288.9004">OperationEditorPaneController</text><rect fill="#FEFECE" filter="url(#f1r7kn21nhf7fq)" height="31.6094" style="stroke:#A80036;stroke-width:1.5;" width="122" x="812.5" y="5"/><text fill="#000000" font-family="sans-serif" font-size="14" lengthAdjust="spacing" textLength="108" x="819.5" y="26.5332">AccessOperation</text><rect fill="#FEFECE" filter="url(#f1r7kn21nhf7fq)" height="31.6094" style="stroke:#A80036;stroke-width:1.5;" width="122" x="812.5" y="267.3672"/><text fill="#000000" font-family="sans-serif" font-size="14" lengthAdjust="spacing" textLength="108" x="819.5" y="288.9004">AccessOperation</text><polygon fill="#A80036" points="320,69.9609,330,73.9609,320,77.9609,324,73.9609" style="stroke:#A80036;stroke-width:1.0;"/><line style="stroke:#A80036;stroke-width:1.0;" x1="121" x2="326" y1="73.9609" y2="73.9609"/><text fill="#000000" font-family="sans-serif" font-size="13" lengthAdjust="spacing" textLength="56" x="128" y="69.1045">doCredit()</text><polygon fill="#A80036" points="492,100.3125,502,104.3125,492,108.3125,496,104.3125" style="stroke:#A80036;stroke-width:1.0;"/><line style="stroke:#A80036;stroke-width:1.0;" x1="332" x2="498" y1="104.3125" y2="104.3125"/><text fill="#000000" font-family="sans-serif" font-size="13" lengthAdjust="spacing" textLength="148" x="339" y="99.4561">doOperationEditorDialog()</text><polygon fill="#A80036" points="684,130.6641,694,134.6641,684,138.6641,688,134.6641" style="stroke:#A80036;stroke-width:1.0;"/><line style="stroke:#A80036;stroke-width:1.0;" x1="504" x2="690" y1="134.6641" y2="134.6641"/><text fill="#000000" font-family="sans-serif" font-size="13" lengthAdjust="spacing" textLength="85" x="511" y="129.8076">displayDialog()</text><line style="stroke:#A80036;stroke-width:1.0;" x1="696" x2="738" y1="165.0156" y2="165.0156"/><line style="stroke:#A80036;stroke-width:1.0;" x1="738" x2="738" y1="165.0156" y2="178.0156"/><line style="stroke:#A80036;stroke-width:1.0;" x1="697" x2="738" y1="178.0156" y2="178.0156"/><polygon fill="#A80036" points="707,174.0156,697,178.0156,707,182.0156,703,178.0156" style="stroke:#A80036;stroke-width:1.0;"/><text fill="#000000" font-family="sans-serif" font-size="13" lengthAdjust="spacing" textLength="63" x="703" y="160.1592">doAjouter()</text><polygon fill="#A80036" points="515,188.0156,505,192.0156,515,196.0156,511,192.0156" style="stroke:#A80036;stroke-width:1.0;"/><line style="stroke:#A80036;stroke-width:1.0;stroke-dasharray:2.0,2.0;" x1="509" x2="695" y1="192.0156" y2="192.0156"/><polygon fill="#A80036" points="343,202.0156,333,206.0156,343,210.0156,339,206.0156" style="stroke:#A80036;stroke-width:1.0;"/><line style="stroke:#A80036;stroke-width:1.0;stroke-dasharray:2.0,2.0;" x1="337" x2="503" y1="206.0156" y2="206.0156"/><polygon fill="#A80036" points="863.5,232.3672,873.5,236.3672,863.5,240.3672,867.5,236.3672" style="stroke:#A80036;stroke-width:1.0;"/><line style="stroke:#A80036;stroke-width:1.0;" x1="332" x2="869.5" y1="236.3672" y2="236.3672"/><text fill="#000000" font-family="sans-serif" font-size="13" lengthAdjust="spacing" textLength="74" x="339" y="231.5107">insertCredit()</text><polygon fill="#A80036" points="343,246.3672,333,250.3672,343,254.3672,339,250.3672" style="stroke:#A80036;stroke-width:1.0;"/><line style="stroke:#A80036;stroke-width:1.0;stroke-dasharray:2.0,2.0;" x1="337" x2="874.5" y1="250.3672" y2="250.3672"/><!--MD5=[ac1068fea5815cf02232105fd66c8c18]
@startuml
OperationsManagementController -> OperationsManagement : doCredit()
    OperationsManagement -> OperationEditorPane : doOperationEditorDialog()
        OperationEditorPane -> OperationEditorPaneController : displayDialog()
        OperationEditorPaneController -> OperationEditorPaneController : doAjouter()
        OperationEditorPane <- - OperationEditorPaneController
    OperationsManagement <- - OperationEditorPane
        OperationsManagement -> AccessOperation : insertCredit()
        OperationsManagement <- - AccessOperation
@enduml

PlantUML version 1.2022.0(Tue Jan 11 17:16:42 CET 2022)
(GPL source distribution)
Java Runtime: OpenJDK Runtime Environment
JVM: OpenJDK 64-Bit Server VM
Default Encoding: UTF-8
Language: en
Country: US
--></g></svg>